<svg xmlns="http://www.w3.org/2000/svg" xmlns:xlink="http://www.w3.org/1999/xlink" width="965.26" height="236.84" viewBox="0 0 965.26 236.84"><defs><style>.a44cb119-0c68-4764-b906-155258256ac5,.a5086fb0-14bf-4e6e-9c55-8968d424a5be,.ac925091-ebeb-4052-9305-29492750e87d,.acdde9ab-4897-4789-867e-c9dbe550be0b,.b40fa53e-a4bc-4d81-91d4-77b7af7c3b6f,.b5f9da6c-0e31-4c07-9b11-697825d7db0f,.ee385928-05bd-4514-9dab-65939b1c1d9b,.f0897a07-cd5c-4d98-a7be-86397b92396a{fill-rule:evenodd;}.acdde9ab-4897-4789-867e-c9dbe550be0b{fill:url(#a5195c6b-c82b-44ae-8d47-17feabb61430);}.f0897a07-cd5c-4d98-a7be-86397b92396a{fill:url(#fbcd9b20-4110-458c-b536-db7d12eb9a52);}.a5086fb0-14bf-4e6e-9c55-8968d424a5be{fill:url(#a3357bb7-df46-4f3e-a3a6-b254e94f10e9);}.a44cb119-0c68-4764-b906-155258256ac5{fill:url(#fda6233b-003c-48ac-b9fb-10689273d1cd);}.ee385928-05bd-4514-9dab-65939b1c1d9b{fill:url(#ae3539a8-1736-46a5-b272-bc5b57813be4);}.ac925091-ebeb-4052-9305-29492750e87d{fill:url(#bd1bc5a2-c459-4a28-805e-3a22bd7a24cb);}.b5f9da6c-0e31-4c07-9b11-697825d7db0f{fill:url(#ee2100b5-21ef-46c8-9183-ea77c0e456d5);}.b40fa53e-a4bc-4d81-91d4-77b7af7c3b6f{fill:url(#e84e2842-d322-4ecf-9402-da426f7c5754);}.a8e9cab3-406a-4d8d-af90-510642384f4f{fill:#d2d3d5;}.ece0a9a2-28f3-4c97-b766-ae4da6dfaf95{fill:#848688;}</style><linearGradient id="a5195c6b-c82b-44ae-8d47-17feabb61430" x1="-38.27" y1="-229.94" x2="-24.59" y2="-253.63" gradientTransform="matrix(7.5, 0, 0, -7.5, 551.65, -1694.83)" gradientUnits="userSpaceOnUse"><stop offset="0" stop-color="#61b16a"/><stop offset=".47" stop-color="#456e48"/><stop offset=".71" stop-color="#395b3d"/><stop offset=".99" stop-color="#303b32"/><stop offset="1" stop-color="#303b32"/></linearGradient><linearGradient id="fbcd9b20-4110-458c-b536-db7d12eb9a52" x1="-24.23" y1="-242.57" x2="-27.13" y2="-241.4" gradientTransform="matrix(7.5, 0, 0, -7.5, 551.65, -1694.83)" gradientUnits="userSpaceOnUse"><stop offset="0" stop-color="#7b5f37"/><stop offset=".45" stop-color="#efb253"/><stop offset=".68" stop-color="#fae689"/><stop offset="1" stop-color="#fae689"/></linearGradient><linearGradient id="a3357bb7-df46-4f3e-a3a6-b254e94f10e9" x1="-56.56" y1="-235.59" x2="-36.28" y2="-244.2" gradientTransform="matrix(7.5, 0, 0, -7.5, 551.65, -1694.83)" gradientUnits="userSpaceOnUse"><stop offset="0" stop-color="#303b32"/><stop offset=".35" stop-color="#303b32"/><stop offset=".71" stop-color="#395b3d"/><stop offset=".99" stop-color="#303b32"/><stop offset="1" stop-color="#303b32"/></linearGradient><linearGradient id="fda6233b-003c-48ac-b9fb-10689273d1cd" x1="-77.57" y1="-235.91" x2="-57.54" y2="-244.01" xlink:href="#a5195c6b-c82b-44ae-8d47-17feabb61430"/><linearGradient id="ae3539a8-1736-46a5-b272-bc5b57813be4" x1="-37.69" y1="-244.89" x2="-47.35" y2="-241.75" xlink:href="#fbcd9b20-4110-458c-b536-db7d12eb9a52"/><linearGradient id="bd1bc5a2-c459-4a28-805e-3a22bd7a24cb" x1="-59.33" y1="-229.94" x2="-45.66" y2="-253.63" xlink:href="#a5195c6b-c82b-44ae-8d47-17feabb61430"/><linearGradient id="ee2100b5-21ef-46c8-9183-ea77c0e456d5" x1="-57.17" y1="-233.9" x2="-63.03" y2="-233.9" xlink:href="#fbcd9b20-4110-458c-b536-db7d12eb9a52"/><linearGradient id="e84e2842-d322-4ecf-9402-da426f7c5754" x1="-45.29" y1="-242.57" x2="-48.19" y2="-241.4" xlink:href="#fbcd9b20-4110-458c-b536-db7d12eb9a52"/></defs><title>Ativo 1</title><g id="bee8db15-0bce-4474-9eca-e33cb00cabec" data-name="Camada 2"><g id="ac0003c7-2271-4fe0-8d58-0bda89ff9bda" data-name="Camada 1"><path class="acdde9ab-4897-4789-867e-c9dbe550be0b" d="M394.89.0H315.95L237 236.84H315.95L394.89.0z"/><path class="f0897a07-cd5c-4d98-a7be-86397b92396a" d="M394.89.0 315.95 236.84 330.27 222.52 4e2 5.11 394.89.0z"/><path class="a5086fb0-14bf-4e6e-9c55-8968d424a5be" d="M236.91.0H157.98l78.93 236.84H237l39.44-118.3L236.91.0z"/><path class="a44cb119-0c68-4764-b906-155258256ac5" d="M78.95.0H0L78.95 236.84H79.04l39.41-118.3L78.95.0z"/><path class="ee385928-05bd-4514-9dab-65939b1c1d9b" d="M280.86 105.25 247.45 10.54 242.04 5.11 236.91.0 157.98 236.84 172.29 222.52 240.37 10.32 276.44 118.54 280.86 105.25z"/><path class="ac925091-ebeb-4052-9305-29492750e87d" d="M236.91.0H157.98L79.04 236.84H157.98L236.91.0z"/><path class="b5f9da6c-0e31-4c07-9b11-697825d7db0f" d="M122.9 105.25 89.49 10.54 78.95.0l39.5 118.54L122.9 105.25z"/><path class="b40fa53e-a4bc-4d81-91d4-77b7af7c3b6f" d="M236.91.0 157.98 236.84 172.29 222.52 242.04 5.11 236.91.0z"/><path class="a8e9cab3-406a-4d8d-af90-510642384f4f" d="M458.53 170.05H462.32V188.85H458.53V170.05z"/><path class="a8e9cab3-406a-4d8d-af90-510642384f4f" d="M485.4 173.69H480.02V170.05H494.6V173.69H489.22V188.85H485.4V173.69z"/><path class="a8e9cab3-406a-4d8d-af90-510642384f4f" d="M533.03 188.85V170.05H545.55V173.61H536.79V177.83H544.51V181.36H536.79V188.85H533.03z"/><path class="a8e9cab3-406a-4d8d-af90-510642384f4f" d="M576.24 175.17a5.89 5.89.0 0 0-8.36.0 5.75 5.75.0 0 0-1.7 4.28 5.84 5.84.0 0 0 1.67 4.28 5.89 5.89.0 0 0 10.1-4.28 5.83 5.83.0 0 0-1.71-4.28zm-11.19 11.22a9.37 9.37.0 0 1-2.78-6.88 9.7 9.7.0 0 1 9.78-9.81 9.73 9.73.0 0 1 9.8 9.75 9.23 9.23.0 0 1-2.83 6.88 9.48 9.48.0 0 1-7 2.84A9.6 9.6.0 0 1 565.05 186.39z"/><path class="a8e9cab3-406a-4d8d-af90-510642384f4f" d="M604 173.52v5.09h3c2 0 3-1.1 3-2.57a2.44 2.44.0 0 0-2.6-2.52zm6.21 15.33-4-6.85H604v6.85h-3.76v-18.8h7.2a6.36 6.36.0 0 1 4.77 1.71 5.92 5.92.0 0 1 1.65 4.25 5.63 5.63.0 0 1-3.82 5.52l4.57 7.32z"/><path class="a8e9cab3-406a-4d8d-af90-510642384f4f" d="M657.02 173.69H651.64V170.05H666.18V173.69H660.83V188.85H657.02V173.69z"/><path class="a8e9cab3-406a-4d8d-af90-510642384f4f" d="M683.91 188.85V170.05H696.67v3.5H687.7V177.6H696V181.13H687.7V185.35H696.67v3.5H683.91z"/><path class="a8e9cab3-406a-4d8d-af90-510642384f4f" d="M715.38 188.85V170.05H719.17V185.24H728.71V188.85H715.38z"/><path class="a8e9cab3-406a-4d8d-af90-510642384f4f" d="M746.44 188.85V170.05h12.75v3.5H750.23V177.6H758.53V181.13H750.23V185.35H759.19v3.5H746.44z"/><path class="a8e9cab3-406a-4d8d-af90-510642384f4f" d="M777.91 188.85V170.05H780.42L787.8 180.69 795.09 170.05H797.63V188.85H793.87V178.18L788.4 186.04H787.1L781.64 178.18V188.85H777.91z"/><path class="a8e9cab3-406a-4d8d-af90-510642384f4f" d="M823.86 175.17l-2.23 6.25h4.43zm4.69 13.68-1.42-4.08h-6.57l-1.44 4.08h-4l7.2-18.8h3.06l7.09 18.8z"/><path class="a8e9cab3-406a-4d8d-af90-510642384f4f" d="M851.97 173.69H846.59V170.05H861.17V173.69H855.79V188.85H851.97V173.69z"/><path class="a8e9cab3-406a-4d8d-af90-510642384f4f" d="M878.87 170.05H882.66V188.85H878.87V170.05z"/><path class="a8e9cab3-406a-4d8d-af90-510642384f4f" d="M903.8 186.45a9.24 9.24.0 0 1-2.78-6.94 9.6 9.6.0 0 1 9.75-9.81 10 10 0 0 1 8.1 3.91l-2.55 2.46a6.69 6.69.0 0 0-5.35-2.72 5.7 5.7.0 0 0-4.28 1.76 5.91 5.91.0 0 0-1.73 4.4 5.81 5.81.0 0 0 6 6 6.76 6.76.0 0 0 5.47-2.74l2.6 2.37a10.31 10.31.0 0 1-8.3 4 9.66 9.66.0 0 1-6.91-2.69z"/><path class="a8e9cab3-406a-4d8d-af90-510642384f4f" d="M935.24 185.64l2.17-2.6a6 6 0 0 0 5 2.6c1.56.0 2.72-.81 2.72-2 0-.78-.58-1.44-1.71-2-.26-.12-.87-.35-1.88-.75a17.89 17.89.0 0 1-2.2-1 5.17 5.17.0 0 1-3-4.68 5 5 0 0 1 1.76-3.91 6.94 6.94.0 0 1 4.66-1.59 8.36 8.36.0 0 1 6.18 2.55l-2 2.75a5.91 5.91.0 0 0-4.14-1.77c-1.5.0-2.4.72-2.4 1.82.0.76.5 1.36 1.54 1.85l1.85.81c1 .44 1.79.79 2.28 1a5 5 0 0 1 3.21 4.68 5.09 5.09.0 0 1-1.91 4.11 7.48 7.48.0 0 1-5 1.62 8.43 8.43.0 0 1-7.11-3.53z"/><path class="a8e9cab3-406a-4d8d-af90-510642384f4f" d="M526.64 48.09 507.67 118.86H496.16L483.09 75.91 470.07 118.86H458.53L439.65 48.09H454.08L465.04 92.69 477.94 48.09H488.29L501.19 92.69 512.21 48.09H526.64z"/><path class="a8e9cab3-406a-4d8d-af90-510642384f4f" d="M549.34 118.86H535.52V48.09H549.34v70.77z"/><path class="a8e9cab3-406a-4d8d-af90-510642384f4f" d="M623.12 118.86H607.01L588.82 86.61 579.68 97.6V118.86H565.86V48.09H579.68V78.92L604.64 48.09H621.44L597.93 76.2 623.12 118.86z"/><path class="a8e9cab3-406a-4d8d-af90-510642384f4f" d="M645.79 118.86H631.97V48.09H645.79v70.77z"/><path class="ece0a9a2-28f3-4c97-b766-ae4da6dfaf95" d="M698.58 83.17c0-3.79-.06-6.76-.21-9a24.56 24.56.0 0 0-.84-5.58 10.26 10.26.0 0 0-1.93-3.85q-3.52-4.38-10.33-4.37H674.83v46.13h10.44a15.06 15.06.0 0 0 6-1.1 11.47 11.47.0 0 0 4.37-3.27 8.62 8.62.0 0 0 1.56-2.86 19.72 19.72.0 0 0 .87-3.56c.17-1.27.29-2.83.4-4.74s.15-4.48.15-7.84zm13.82.0v5.27a58.44 58.44.0 0 1-1.33 13.7 21.16 21.16.0 0 1-5.84 10 21.52 21.52.0 0 1-8.27 5.09 31.8 31.8.0 0 1-10.42 1.65H661V48.09h25.53A32.3 32.3.0 0 1 697 49.71a21.71 21.71.0 0 1 8.27 5.12 21 21 0 0 1 5.84 9.78 54.68 54.68.0 0 1 1.33 13.27z"/><path class="ece0a9a2-28f3-4c97-b766-ae4da6dfaf95" d="M759 94.68 750.26 69l-8.91 25.71zm22.24 24.18H766.77l-4.16-12.52H737.45l-4.26 12.52H718.76l25.77-70.77h10.85l25.82 70.77z"/><path class="ece0a9a2-28f3-4c97-b766-ae4da6dfaf95" d="M827.53 83.17c0-3.79.0-6.76-.17-9a26.18 26.18.0 0 0-.87-5.58 10.53 10.53.0 0 0-1.91-3.85Q821 60.4 814.26 60.41H803.82v46.13h10.44a15.09 15.09.0 0 0 6-1.1 11.67 11.67.0 0 0 4.36-3.27 9.64 9.64.0 0 0 1.57-2.86 18.93 18.93.0 0 0 .83-3.56c.18-1.27.32-2.83.41-4.74s.14-4.48.14-7.84zm13.86.0v5.27a60.67 60.67.0 0 1-1.33 13.7 22.09 22.09.0 0 1-14.12 15.07 32 32 0 0 1-10.44 1.65H790V48.09h25.5a32.51 32.51.0 0 1 10.44 1.62 21.41 21.41.0 0 1 8.25 5.12 21.17 21.17.0 0 1 5.87 9.78 56.76 56.76.0 0 1 1.33 13.27z"/><path class="ece0a9a2-28f3-4c97-b766-ae4da6dfaf95" d="M891.57 83.49c0-4.4-.09-7.89-.32-10.47a24.49 24.49.0 0 0-1-5.81 11.16 11.16.0 0 0-2.12-3.59 10 10 0 0 0-3.76-2.75 12.48 12.48.0 0 0-5.11-1 12.82 12.82.0 0 0-5 1 11.24 11.24.0 0 0-3.93 2.77 11.62 11.62.0 0 0-2.08 3.56 23.6 23.6.0 0 0-1 5.81c-.17 2.61-.29 6.1-.29 10.5s.12 7.9.29 10.47a24.18 24.18.0 0 0 1 5.84 11.75 11.75.0 0 0 2.08 3.59 11.74 11.74.0 0 0 19.93-3.62 24.79 24.79.0 0 0 1-5.81c.23-2.54.32-6 .32-10.47zm13.85.0c0 3.94-.06 7-.15 9.29a44 44 0 0 1-.78 7 26 26 0 0 1-2.11 6.5 20.13 20.13.0 0 1-4 5.5 26.11 26.11.0 0 1-19.11 7.72 26 26 0 0 1-19.18-7.72 20.66 20.66.0 0 1-4.77-7.49 32.86 32.86.0 0 1-1.82-8.53q-.35-4.47-.35-12.24c0-5.17.12-9.22.35-12.2a32.51 32.51.0 0 1 1.82-8.53 20.49 20.49.0 0 1 4.77-7.49 26 26 0 0 1 19.18-7.73 26.12 26.12.0 0 1 19.11 7.73 21 21 0 0 1 4.8 7.46 30.82 30.82.0 0 1 1.91 8.56c.23 3 .35 7 .35 12.2z"/><path class="ece0a9a2-28f3-4c97-b766-ae4da6dfaf95" d="M965.26 98a19.44 19.44.0 0 1-3.42 11.51 21.14 21.14.0 0 1-9.48 7.4A34.5 34.5.0 0 1 939 119.44a53.39 53.39.0 0 1-7.75-.52 36.38 36.38.0 0 1-6.6-1.5 30.42 30.42.0 0 1-5.93-2.87 31 31 0 0 1-5.55-4.42l8.94-9c4 4 9.63 6 17.09 6 4.05.0 7.17-.75 9.31-2.26a7.39 7.39.0 0 0 3.24-6.47 7.79 7.79.0 0 0-2.23-6c-1.33-1.25-3.41-2.06-6.24-2.49l-8.53-1.21c-6-.87-10.62-2.81-13.71-5.82-3.42-3.41-5.12-8-5.12-13.94q0-9.63 6.68-15.53c4.45-4 10.47-5.93 18-5.93a37.89 37.89.0 0 1 12.95 2 26.87 26.87.0 0 1 9.92 6.3l-8.76 8.65a15.92 15.92.0 0 0-6.57-3.87 29.33 29.33.0 0 0-7.92-1c-3.53.0-6.25.84-8.1 2.52a8.3 8.3.0 0 0-2.83 6.45 6.62 6.62.0 0 0 2.11 5.06 11.26 11.26.0 0 0 6.54 2.75l8.32 1.21c6 .81 10.53 2.63 13.51 5.5q5.5 5.11 5.5 15z"/></g></g></svg>