<?xml version="1.0" encoding="utf-8"?>
<!-- Generator: Adobe Illustrator 24.0.1, SVG Export Plug-In . SVG Version: 6.00 Build 0)  -->
<svg version="1.1" id="Camada_1" xmlns="http://www.w3.org/2000/svg" xmlns:xlink="http://www.w3.org/1999/xlink" x="0px" y="0px"
	 viewBox="0 0 512 490" style="enable-background:new 0 0 512 490;" xml:space="preserve">
<style type="text/css">
	.st0{fill-rule:evenodd;clip-rule:evenodd;fill:url(#SVGID_1_);}
	.st1{fill-rule:evenodd;clip-rule:evenodd;fill:url(#SVGID_2_);}
	.st2{fill-rule:evenodd;clip-rule:evenodd;fill:url(#SVGID_3_);}
	.st3{fill-rule:evenodd;clip-rule:evenodd;fill:url(#SVGID_4_);}
	.st4{fill-rule:evenodd;clip-rule:evenodd;fill:url(#SVGID_5_);}
	.st5{fill-rule:evenodd;clip-rule:evenodd;fill:url(#SVGID_6_);}
	.st6{fill-rule:evenodd;clip-rule:evenodd;fill:url(#SVGID_7_);}
	.st7{fill-rule:evenodd;clip-rule:evenodd;fill:url(#SVGID_8_);}
	.st8{fill:#52514E;}
	.st9{fill:#6B6C6A;}
</style>
<g id="_1306900287968">
	
		<linearGradient id="SVGID_1_" gradientUnits="userSpaceOnUse" x1="50.3871" y1="489.3556" x2="67.8567" y2="459.0987" gradientTransform="matrix(7.4994 0 0 -7.4994 -38.9695 3707.2161)">
		<stop  offset="0" style="stop-color:#61B16A"/>
		<stop  offset="0.4706" style="stop-color:#456E48"/>
		<stop  offset="0.7098" style="stop-color:#395B3D"/>
		<stop  offset="0.9882" style="stop-color:#303B32"/>
		<stop  offset="1" style="stop-color:#303B32"/>
	</linearGradient>
	<polygon class="st0" points="505.5,-0.5 404.4,-0.5 303.4,302.1 404.4,302.1 	"/>
	
		<linearGradient id="SVGID_2_" gradientUnits="userSpaceOnUse" x1="68.3258" y1="473.231" x2="64.6408" y2="474.7192" gradientTransform="matrix(7.4994 0 0 -7.4994 -38.9695 3707.2161)">
		<stop  offset="0" style="stop-color:#7B5F37"/>
		<stop  offset="0.451" style="stop-color:#EFB253"/>
		<stop  offset="0.6784" style="stop-color:#FAE689"/>
		<stop  offset="1" style="stop-color:#FAE689"/>
	</linearGradient>
	<polygon class="st1" points="505.5,-0.5 404.4,302.1 422.8,283.8 512,6 	"/>
	
		<linearGradient id="SVGID_3_" gradientUnits="userSpaceOnUse" x1="26.9627" y1="482.1508" x2="52.8993" y2="471.1428" gradientTransform="matrix(7.4994 0 0 -7.4994 -38.9695 3707.2161)">
		<stop  offset="0" style="stop-color:#303B32"/>
		<stop  offset="0.349" style="stop-color:#303B32"/>
		<stop  offset="0.7098" style="stop-color:#395B3D"/>
		<stop  offset="0.9882" style="stop-color:#303B32"/>
		<stop  offset="1" style="stop-color:#303B32"/>
	</linearGradient>
	<polygon class="st2" points="303.2,-0.5 202.2,-0.5 303.2,302.1 303.4,302.1 353.8,150.9 	"/>
	
		<linearGradient id="SVGID_4_" gradientUnits="userSpaceOnUse" x1="8.041779e-02" y1="481.7408" x2="25.692" y2="471.3896" gradientTransform="matrix(7.4994 0 0 -7.4994 -38.9695 3707.2161)">
		<stop  offset="0" style="stop-color:#61B16A"/>
		<stop  offset="0.4706" style="stop-color:#456E48"/>
		<stop  offset="0.7098" style="stop-color:#395B3D"/>
		<stop  offset="0.9882" style="stop-color:#303B32"/>
		<stop  offset="1" style="stop-color:#303B32"/>
	</linearGradient>
	<polygon class="st3" points="101.1,-0.5 0,-0.5 101.1,302.1 101.2,302.1 151.6,150.9 	"/>
	
		<linearGradient id="SVGID_5_" gradientUnits="userSpaceOnUse" x1="51.1148" y1="470.257" x2="38.7327" y2="474.2804" gradientTransform="matrix(7.4994 0 0 -7.4994 -38.9695 3707.2161)">
		<stop  offset="0" style="stop-color:#7B5F37"/>
		<stop  offset="0.451" style="stop-color:#EFB253"/>
		<stop  offset="0.6784" style="stop-color:#FAE689"/>
		<stop  offset="1" style="stop-color:#FAE689"/>
	</linearGradient>
	<polygon class="st4" points="359.5,134 316.7,13 309.8,6 303.2,-0.5 202.2,302.1 220.5,283.8 307.7,12.7 353.8,150.9 	"/>
	
		<linearGradient id="SVGID_6_" gradientUnits="userSpaceOnUse" x1="23.4257" y1="489.3564" x2="40.8934" y2="459.0962" gradientTransform="matrix(7.4994 0 0 -7.4994 -38.9695 3707.2161)">
		<stop  offset="0" style="stop-color:#61B16A"/>
		<stop  offset="0.4706" style="stop-color:#456E48"/>
		<stop  offset="0.7098" style="stop-color:#395B3D"/>
		<stop  offset="0.9882" style="stop-color:#303B32"/>
		<stop  offset="1" style="stop-color:#303B32"/>
	</linearGradient>
	<polygon class="st5" points="303.2,-0.5 202.2,-0.5 101.2,302.1 202.2,302.1 	"/>
	
		<linearGradient id="SVGID_7_" gradientUnits="userSpaceOnUse" x1="26.173" y1="484.3027" x2="18.6711" y2="484.3027" gradientTransform="matrix(7.4994 0 0 -7.4994 -38.9695 3707.2161)">
		<stop  offset="0" style="stop-color:#7B5F37"/>
		<stop  offset="0.451" style="stop-color:#EFB253"/>
		<stop  offset="0.6784" style="stop-color:#FAE689"/>
		<stop  offset="1" style="stop-color:#FAE689"/>
	</linearGradient>
	<polygon class="st6" points="157.3,134 114.5,13 101.1,-0.5 151.6,150.9 	"/>
	
		<linearGradient id="SVGID_8_" gradientUnits="userSpaceOnUse" x1="41.3631" y1="473.23" x2="37.6817" y2="474.7182" gradientTransform="matrix(7.4994 0 0 -7.4994 -38.9695 3707.2161)">
		<stop  offset="0" style="stop-color:#7B5F37"/>
		<stop  offset="0.451" style="stop-color:#EFB253"/>
		<stop  offset="0.6784" style="stop-color:#FAE689"/>
		<stop  offset="1" style="stop-color:#FAE689"/>
	</linearGradient>
	<polygon class="st7" points="303.2,-0.5 202.2,302.1 220.5,283.8 309.8,6 	"/>
	<polygon class="st8" points="18.4,470.9 22.1,470.9 22.1,489.2 18.4,489.2 	"/>
	<polygon class="st8" points="44.6,474.5 39.3,474.5 39.3,470.9 53.5,470.9 53.5,474.5 48.3,474.5 48.3,489.2 44.6,489.2 	"/>
	<polygon class="st8" points="91,489.2 91,470.9 103.2,470.9 103.2,474.4 94.6,474.4 94.6,478.5 102.2,478.5 102.2,481.9 
		94.6,481.9 94.6,489.2 	"/>
	<path class="st8" d="M133.1,475.9c-1.1-1.1-2.5-1.7-4.1-1.7c-1.6,0-2.9,0.6-4.1,1.7c-1.1,1.1-1.7,2.5-1.7,4.2s0.5,3.1,1.6,4.2
		c1.1,1.1,2.5,1.7,4.1,1.7c1.6,0,3-0.5,4.1-1.7c1.1-1.1,1.7-2.5,1.6-4.2C134.7,478.4,134.2,477,133.1,475.9L133.1,475.9z
		 M122.2,486.8c-1.8-1.8-2.7-4-2.7-6.7s0.9-4.9,2.7-6.7c1.9-1.9,4.1-2.8,6.8-2.8c2.7,0,5,0.9,6.8,2.8c1.9,1.9,2.8,4.1,2.8,6.7
		c0,2.6-0.9,4.9-2.8,6.7c-1.8,1.8-4.1,2.8-6.8,2.8C126.3,489.5,124,488.6,122.2,486.8z"/>
	<path class="st8" d="M160.1,474.3v4.9h3c1.9,0,2.9-1.1,2.9-2.5c0-1.4-1-2.4-2.5-2.4H160.1z M166.1,489.2l-3.9-6.7h-2.2v6.7h-3.7
		v-18.3h7c2,0,3.6,0.6,4.6,1.7c1.1,1.1,1.6,2.5,1.6,4.1c0,2.4-1.2,4.5-3.7,5.4l4.5,7.1H166.1L166.1,489.2z"/>
	<polygon class="st8" points="211.7,474.5 206.5,474.5 206.5,470.9 220.7,470.9 220.7,474.5 215.5,474.5 215.5,489.2 211.7,489.2 	
		"/>
	<polygon class="st8" points="237.9,489.2 237.9,470.9 250.4,470.9 250.4,474.3 241.6,474.3 241.6,478.3 249.7,478.3 249.7,481.7 
		241.6,481.7 241.6,485.8 250.4,485.8 250.4,489.2 	"/>
	<polygon class="st8" points="268.6,489.2 268.6,470.9 272.3,470.9 272.3,485.7 281.6,485.7 281.6,489.2 	"/>
	<polygon class="st8" points="298.8,489.2 298.8,470.9 311.3,470.9 311.3,474.3 302.5,474.3 302.5,478.3 310.6,478.3 310.6,481.7 
		302.5,481.7 302.5,485.8 311.3,485.8 311.3,489.2 	"/>
	<polygon class="st8" points="329.5,489.2 329.5,470.9 332,470.9 339.1,481.3 346.2,470.9 348.7,470.9 348.7,489.2 345.1,489.2 
		345.1,478.8 339.7,486.5 338.5,486.5 333.1,478.8 333.1,489.2 	"/>
	<path class="st8" d="M374.3,475.9l-2.2,6.1h4.3L374.3,475.9z M378.8,489.2l-1.4-4h-6.4l-1.4,4h-3.9l7-18.3h3l6.9,18.3H378.8z"/>
	<polygon class="st8" points="401.6,474.5 396.4,474.5 396.4,470.9 410.6,470.9 410.6,474.5 405.4,474.5 405.4,489.2 401.6,489.2 	
		"/>
	<polygon class="st8" points="427.8,470.9 431.5,470.9 431.5,489.2 427.8,489.2 	"/>
	<path class="st8" d="M452.1,486.9c-1.8-1.7-2.7-4-2.7-6.7c0-2.8,0.9-5,2.8-6.8c1.9-1.8,4.1-2.7,6.7-2.7c3.3,0,6.3,1.5,7.9,3.8
		l-2.5,2.4c-1.4-1.7-3.2-2.6-5.2-2.6c-1.7,0-3.1,0.6-4.2,1.7c-1.1,1.1-1.7,2.6-1.7,4.3c0,1.7,0.5,3.1,1.7,4.2
		c1.1,1.1,2.5,1.7,4.2,1.7c2.1,0,3.9-0.9,5.3-2.7l2.5,2.3c-1.7,2.3-4.7,3.9-8.1,3.9C456.2,489.5,454,488.6,452.1,486.9L452.1,486.9z
		"/>
	<path class="st8" d="M482.8,486.1l2.1-2.5c1.2,1.7,3,2.5,4.8,2.5c1.5,0,2.6-0.8,2.6-1.9c0-0.8-0.6-1.4-1.7-1.9
		c-0.3-0.1-0.8-0.3-1.8-0.7c-0.9-0.4-1.7-0.7-2.1-1c-1.9-1.1-2.9-2.6-2.9-4.6c0-1.5,0.6-2.8,1.7-3.8c1.2-1,2.7-1.5,4.5-1.5
		c2.4,0,4.4,0.8,6,2.5l-2,2.7c-1-1.1-2.6-1.7-4-1.7c-1.5,0-2.3,0.7-2.3,1.8c0,0.7,0.5,1.3,1.5,1.8l1.8,0.8c1,0.4,1.7,0.8,2.2,1
		c2.1,1,3.1,2.5,3.1,4.6c0,1.6-0.6,3-1.9,4c-1.2,1-2.8,1.6-4.9,1.6C486.8,489.5,484.3,488.3,482.8,486.1L482.8,486.1z"/>
	<polygon class="st8" points="84.7,352.4 66.3,421.2 55,421.2 42.3,379.4 29.6,421.2 18.4,421.2 0,352.4 14.1,352.4 24.7,395.7 
		37.3,352.4 47.4,352.4 60,395.7 70.7,352.4 	"/>
	<polygon class="st8" points="106.9,421.2 93.4,421.2 93.4,352.4 106.9,352.4 	"/>
	<polygon class="st8" points="178.7,421.2 163,421.2 145.3,389.8 136.4,400.5 136.4,421.2 122.9,421.2 122.9,352.4 136.4,352.4 
		136.4,382.3 160.7,352.4 177.1,352.4 154.2,379.7 	"/>
	<polygon class="st8" points="200.8,421.2 187.3,421.2 187.3,352.4 200.8,352.4 	"/>
	<path class="st9" d="M252.2,386.5c0-3.7-0.1-6.6-0.2-8.7c-0.1-2.1-0.4-4-0.8-5.4c-0.4-1.5-1-2.7-1.9-3.7c-2.3-2.8-5.6-4.2-10.1-4.2
		h-10.2v44.8h10.2c2.2,0,4.2-0.4,5.8-1.1c1.7-0.7,3.1-1.8,4.3-3.2c0.6-0.8,1.2-1.7,1.5-2.8c0.4-1.1,0.6-2.2,0.8-3.5
		c0.2-1.2,0.3-2.8,0.4-4.6C252.2,392.3,252.2,389.7,252.2,386.5L252.2,386.5z M265.7,386.5v5.1c0,5.3-0.4,9.8-1.3,13.3
		c-0.9,3.5-2.8,6.8-5.7,9.7c-2.3,2.2-4.9,3.9-8.1,4.9c-3.1,1.1-6.5,1.6-10.1,1.6h-24.9v-68.8h24.9c3.7,0,7.1,0.5,10.1,1.6
		c3.1,1.1,5.8,2.7,8.1,5c2.9,2.9,4.8,6.1,5.7,9.5c0.9,3.4,1.3,7.7,1.3,12.9V386.5z"/>
	<path class="st9" d="M311,397.7l-8.5-25l-8.7,25H311z M332.7,421.2h-14.1l-4.1-12.2h-24.5l-4.1,12.2h-14.1l25.1-68.8h10.6
		L332.7,421.2L332.7,421.2z"/>
	<path class="st9" d="M377.8,386.5c0-3.7-0.1-6.6-0.2-8.7c-0.1-2.1-0.4-4-0.8-5.4c-0.4-1.5-1-2.7-1.9-3.7c-2.3-2.8-5.7-4.2-10.1-4.2
		h-10.2v44.8h10.2c2.2,0,4.2-0.4,5.8-1.1c1.6-0.7,3.1-1.8,4.3-3.2c0.6-0.8,1.1-1.7,1.5-2.8c0.4-1.1,0.6-2.2,0.8-3.5
		c0.2-1.2,0.3-2.8,0.4-4.6C377.8,392.3,377.8,389.7,377.8,386.5L377.8,386.5z M391.3,386.5v5.1c0,5.3-0.5,9.8-1.3,13.3
		c-0.9,3.5-2.8,6.8-5.7,9.7c-2.2,2.2-4.9,3.9-8,4.9c-3.1,1.1-6.5,1.6-10.2,1.6h-24.9v-68.8h24.9c3.7,0,7.1,0.5,10.2,1.6
		c3.1,1.1,5.8,2.7,8,5c2.9,2.9,4.8,6.1,5.7,9.5c0.8,3.4,1.3,7.7,1.3,12.9V386.5z"/>
	<path class="st9" d="M440.2,386.8c0-4.3-0.1-7.7-0.3-10.2c-0.2-2.5-0.5-4.4-1-5.7c-0.5-1.3-1.1-2.4-2.1-3.5c-0.9-1.1-2.1-2-3.7-2.7
		c-1.5-0.7-3.2-1-5-1c-1.7,0-3.3,0.3-4.9,1c-1.5,0.7-2.8,1.6-3.8,2.7c-0.9,1.1-1.6,2.2-2,3.5c-0.5,1.2-0.8,3.1-1,5.7
		c-0.2,2.5-0.3,5.9-0.3,10.2s0.1,7.7,0.3,10.2c0.2,2.5,0.5,4.4,1,5.7c0.5,1.2,1.1,2.4,2,3.5c2.1,2.4,5,3.6,8.7,3.6
		c3.7,0,6.5-1.2,8.6-3.6c0.9-1.1,1.6-2.2,2.1-3.5c0.5-1.3,0.8-3.1,1-5.7C440.1,394.5,440.2,391.1,440.2,386.8L440.2,386.8z
		 M453.7,386.7c0,3.8-0.1,6.8-0.1,9c-0.1,2.2-0.3,4.5-0.8,6.8c-0.5,2.3-1.1,4.4-2.1,6.3c-0.9,1.9-2.2,3.7-3.9,5.3
		c-5.1,5-11.3,7.5-18.6,7.5c-3.8,0-7.2-0.6-10.3-1.9s-5.8-3.1-8.4-5.6c-2.1-2.2-3.7-4.6-4.6-7.3c-1-2.7-1.5-5.4-1.8-8.3
		c-0.2-2.9-0.3-6.9-0.3-11.9s0.1-9,0.3-11.9c0.2-2.9,0.8-5.7,1.8-8.3c1-2.7,2.5-5.1,4.6-7.3c2.6-2.5,5.4-4.4,8.4-5.6
		c3-1.3,6.5-1.9,10.3-1.9c7.4,0,13.6,2.5,18.6,7.5c2.1,2.2,3.7,4.6,4.7,7.3c1,2.7,1.6,5.5,1.9,8.3
		C453.6,377.8,453.7,381.7,453.7,386.7L453.7,386.7z"/>
	<path class="st9" d="M512,400.9c0,4.3-1.1,8-3.3,11.2c-2.2,3.1-5.3,5.6-9.2,7.2c-3.9,1.6-8.3,2.4-13,2.4c-2.7,0-5.2-0.2-7.6-0.5
		c-2.3-0.3-4.5-0.8-6.4-1.5c-1.9-0.7-3.9-1.6-5.8-2.8c-1.9-1.2-3.7-2.6-5.4-4.3l8.7-8.7c3.9,3.9,9.4,5.8,16.6,5.8
		c3.9,0,7-0.7,9.1-2.2c2.1-1.5,3.2-3.6,3.2-6.3c0-2.5-0.7-4.4-2.2-5.8c-1.3-1.2-3.3-2-6.1-2.4l-8.3-1.2c-5.9-0.8-10.3-2.7-13.4-5.7
		c-3.3-3.3-5-7.8-5-13.6c0-6.2,2.2-11.3,6.5-15.1c4.3-3.9,10.2-5.8,17.6-5.8c4.8,0,9.1,0.6,12.6,1.9c3.6,1.3,6.8,3.3,9.7,6.1
		l-8.5,8.4c-2-1.9-4.1-3.1-6.4-3.8c-2.3-0.6-4.9-1-7.7-1c-3.4,0-6.1,0.8-7.9,2.4c-1.8,1.6-2.8,3.7-2.8,6.3c0,2,0.7,3.7,2.1,4.9
		c1.5,1.4,3.6,2.3,6.4,2.7l8.1,1.2c5.9,0.8,10.3,2.6,13.2,5.3C510.2,389.6,512,394.5,512,400.9L512,400.9z"/>
</g>
</svg>
