<svg xmlns="http://www.w3.org/2000/svg" viewBox="0 0 512 512"><defs><style>.a{fill:#333;}.b{fill:#26522e;}.c{fill:#4d975a;}.d{fill:#d19132;}.e{fill:#e6e6e6;}</style></defs><title>BI-32</title><circle class="a" cx="256" cy="256" r="210.81"/><path class="b" d="M470.31,379.73h0l-7.11-4.1h0l-3.35-1.94a235.39,235.39,0,0,1-407.7,0l-3.35,1.94h0l-7.11,4.1h0L34.3,384a256,256,0,0,0,443.4,0Z"/><path class="c" d="M0,256A256,256,0,0,0,34.3,384l7.36-4.25h0l3.46-2h0l7-4.06A235.38,235.38,0,0,1,20.62,256C20.62,126.87,126.87,20.62,256,20.62V0C115.56,0,0,115.56,0,256Z"/><path class="d" d="M512,256C512,115.56,396.43,0,256,0V20.62c129.13,0,235.38,106.25,235.38,235.38a235.38,235.38,0,0,1-31.53,117.69l7,4.06h0l3.46,2h0L477.7,384A256,256,0,0,0,512,256Z"/><path class="e" d="M409.74,267.54c-12.71-28.61-29.41-92.13-44.37-113.39a126.33,126.33,0,0,0-103.23-53.58h-45a116.45,116.45,0,0,0-77.71,203.28V411.43H294.87V372.57h38.85a38.85,38.85,0,0,0,38.86-38.86V294.86H392a19.44,19.44,0,0,0,19.41-19.45A19.22,19.22,0,0,0,409.74,267.54Z"/><path class="c" d="M203.94,126.8a5.8,5.8,0,1,1,11.6,0v15.47a5.8,5.8,0,1,1-11.6,0Z"/><path class="c" d="M153.57,204h-.21l-15.46-.57a5.81,5.81,0,0,1,.43-11.6l15.46.58a5.8,5.8,0,1,1-.22,11.6Z"/><path class="c" d="M164.46,176a5.8,5.8,0,0,1-7.87,2.31l-.19-.1L143,170.54a5.8,5.8,0,0,1,5.74-10.08l13.44,7.66A5.8,5.8,0,0,1,164.46,176Z"/><path class="c" d="M168.35,132.8a5.81,5.81,0,0,1,8,2l7.73,13.39a5.8,5.8,0,0,1-10,5.8l-7.74-13.39A5.81,5.81,0,0,1,168.35,132.8Z"/><path class="b" d="M228.62,265.19a9.09,9.09,0,0,1-1.31,4.27l-4.13,6.21a8.62,8.62,0,0,1-6.44,3.45H201.83a8.61,8.61,0,0,1-6.44-3.45l-4.14-6.21a7.73,7.73,0,0,1-1.29-4.27l0-9.27h38.68Z"/><path class="b" d="M213.15,174.71a3.86,3.86,0,0,1-3.87,3.86,19.38,19.38,0,0,0-19.34,19.34,3.87,3.87,0,1,1-7.73,0,27.1,27.1,0,0,1,27.07-27.07A3.87,3.87,0,0,1,213.15,174.71Zm38.67,23.2a42.54,42.54,0,1,0-74.55,28c4,4.55,10.24,14.07,12.62,22.1a1.11,1.11,0,0,0,0,.19h38.74a1.37,1.37,0,0,1,0-.19c2.38-8,8.63-17.55,12.62-22.1A42.29,42.29,0,0,0,251.82,197.91Z"/><path class="c" d="M252.19,140.57,244.46,154a1.74,1.74,0,0,1-.11.18,5.8,5.8,0,0,1-9.94-6l7.74-13.4a5.8,5.8,0,0,1,10,5.8Z"/><path class="d" d="M253.71,175.36a5.79,5.79,0,0,1,2.31-7.87l13.44-7.66a5.8,5.8,0,0,1,5.74,10.08l-13.44,7.65-.18.11A5.8,5.8,0,0,1,253.71,175.36Z"/><path class="c" d="M280.7,203.57l-15.46.57H265a5.8,5.8,0,1,1-.22-11.6l15.46-.57a5.8,5.8,0,0,1,.43,11.59Z"/></svg>