<svg xmlns="http://www.w3.org/2000/svg" viewBox="0 0 512 512"><defs><style>.a{fill:#26522e;}.b{fill:#4d975a;}.c{fill:#d19132;}.d{fill:#6b6c6a;}.e{fill:#333;}</style></defs><title>BI-34</title><path class="a" d="M470.31,379.73h0l-7.11-4.1h0l-3.35-1.94a235.39,235.39,0,0,1-407.7,0l-3.35,1.94h0l-7.11,4.1h0L34.3,384a256,256,0,0,0,443.4,0Z"/><path class="b" d="M0,256A256,256,0,0,0,34.3,384l7.36-4.25h0l3.46-2h0l7-4.06A235.38,235.38,0,0,1,20.62,256C20.62,126.87,126.87,20.62,256,20.62V0C115.56,0,0,115.56,0,256Z"/><path class="c" d="M512,256C512,115.56,396.43,0,256,0V20.62c129.13,0,235.38,106.25,235.38,235.38a235.38,235.38,0,0,1-31.53,117.69l7,4.06h0l3.46,2h0L477.7,384A256,256,0,0,0,512,256Z"/><path class="d" d="M425,342.35a51.57,51.57,0,0,1,1,10,51,51,0,0,1-51,51,47.65,47.65,0,0,1-8.5-.85,50.88,50.88,0,0,1-99.17-16.15V347.84h84.56a26.23,26.23,0,0,0,26.19-26.2V309.71a26.22,26.22,0,0,0-26.19-26.2H304.21l14.46-14.46a29.17,29.17,0,0,0,47.48-22.73v-44A26.2,26.2,0,0,0,340,176.09h-44a29.12,29.12,0,0,0-27,18,30.13,30.13,0,0,0-1.63,5.29V120a45.25,45.25,0,0,1,89.11-11.19c.5,0,1-.14,1.56-.14a44.93,44.93,0,0,1,44.13,55.25,56.67,56.67,0,0,1,35.2,52.41,55.61,55.61,0,0,1-5.88,24.72A56.46,56.46,0,0,1,425,342.35Z"/><path class="e" d="M211,214.17V190.36a26.23,26.23,0,0,0-26.19-26.2H172.86a26.23,26.23,0,0,0-26.2,26.2V315.68a32.2,32.2,0,0,0,32.17,32.16h65.84v38.49a50.88,50.88,0,0,1-99.17,16.15,47.65,47.65,0,0,1-8.5.85,51,51,0,0,1-51-51,51.57,51.57,0,0,1,1-10,56.46,56.46,0,0,1-6.44-101.3,56.17,56.17,0,0,1,29.32-77.13,41.77,41.77,0,0,1-1.2-9.92A45.37,45.37,0,0,1,154,108.67c.57,0,1,.14,1.56.14A45.25,45.25,0,0,1,244.67,120v80.56a32.42,32.42,0,0,0-6.17-.59,31.88,31.88,0,0,0-22.73,9.42Z"/><path class="c" d="M345.92,202.29v44a9,9,0,0,1-15.28,6.33l-12.09-12.08-35.8,35.8a11.94,11.94,0,0,1-15.42,1.25,12.22,12.22,0,0,1-1.46-1.25l-21.2-21.2L238.5,249l-17.17,17.18a6,6,0,0,1-8.45,0l-8.43-8.44a6,6,0,0,1,0-8.44l25.62-25.62a12,12,0,0,1,16.88,0l20.38,20.39,7,7,27.36-27.37L289.59,211.6a9,9,0,0,1,6.33-15.28h44A6,6,0,0,1,345.92,202.29Z"/><path class="a" d="M357.86,309.71v11.93a6,6,0,0,1-6,6H178.83a11.94,11.94,0,0,1-11.94-11.93V190.36a6,6,0,0,1,6-6H184.8a6,6,0,0,1,6,6V303.74H351.89A6,6,0,0,1,357.86,309.71Z"/></svg>