<svg xmlns="http://www.w3.org/2000/svg" viewBox="0 0 512 512"><defs><style>.a{fill:#333;}.b{fill:#6b6c6a;}.c{fill:#d19132;}.d{fill:#4d975a;}.e{fill:#26522e;}</style></defs><title>BI-37</title><path class="a" d="M104.22,251.74l55-97.27h82.55V85.33A56.78,56.78,0,0,0,130,71.29c-.72,0-1.25-.18-2-.18A56.94,56.94,0,0,0,71.11,128a52.25,52.25,0,0,0,1.51,12.44,70.49,70.49,0,0,0-36.8,96.8,70.86,70.86,0,0,0,8.09,127.12,65,65,0,0,0-1.24,12.53,64,64,0,0,0,64,64,60.38,60.38,0,0,0,10.66-1.07,63.85,63.85,0,0,0,124.45-20.26v-7.49Z"/><path class="b" d="M512,298.67a70.76,70.76,0,0,0-35.82-61.43,70,70,0,0,0,7.38-31,71.13,71.13,0,0,0-44.18-65.78A56.36,56.36,0,0,0,384,71.11c-.71,0-1.33.18-2,.18a56.78,56.78,0,0,0-111.82,14v69.14h82.55l55,97.27L270.22,412.07v7.49a63.85,63.85,0,0,0,124.45,20.26,60.38,60.38,0,0,0,10.66,1.07,64,64,0,0,0,64-64,65,65,0,0,0-1.24-12.53A71.11,71.11,0,0,0,512,298.67Z"/><polygon class="c" points="343.44 170.47 383.5 241.3 338.74 241.3 308.11 170.47 343.44 170.47"/><polygon class="d" points="286.77 170.47 317.4 241.3 194.6 241.3 225.23 170.47 286.77 170.47"/><polygon class="e" points="168.56 170.47 203.89 170.47 173.26 241.3 128.5 241.3 168.56 170.47"/><path class="e" d="M128.5,255.47h44.58L227.53,366.9a1.34,1.34,0,0,1-2.21,1.46Z"/><path class="d" d="M194.11,255.47H317.89L257.24,396.34a1.33,1.33,0,0,1-2.44,0Z"/><path class="c" d="M284.47,366.9l54.45-111.43H383.5L286.68,368.31a1.32,1.32,0,0,1-2.21-1.41Z"/></svg>