<svg xmlns="http://www.w3.org/2000/svg" viewBox="0 0 512 512"><defs><style>.a{fill:#26522e;}.b{fill:#4d975a;}.c{fill:#d19132;}.d{fill:#333;}.e{fill:#6b6c6a;}</style></defs><title>BI-35</title><path class="a" d="M470.31,379.73h0l-7.11-4.1h0l-3.35-1.94a235.39,235.39,0,0,1-407.7,0l-3.35,1.94h0l-7.11,4.1h0L34.3,384a256,256,0,0,0,443.4,0Z"/><path class="b" d="M0,256A256,256,0,0,0,34.3,384l7.36-4.25h0l3.46-2h0l7-4.06A235.38,235.38,0,0,1,20.62,256C20.62,126.87,126.87,20.62,256,20.62V0C115.56,0,0,115.56,0,256Z"/><path class="c" d="M512,256C512,115.56,396.43,0,256,0V20.62c129.13,0,235.38,106.25,235.38,235.38a235.38,235.38,0,0,1-31.53,117.69l7,4.06h0l3.46,2h0L477.7,384A256,256,0,0,0,512,256Z"/><circle class="d" cx="256" cy="241.09" r="75.55"/><path class="d" d="M388.21,414.85v5.37a210.88,210.88,0,0,1-264.42,0v-5.37a79.34,79.34,0,0,1,79.33-79.32H213a102.79,102.79,0,0,0,86.06,0h9.85A79.34,79.34,0,0,1,388.21,414.85Z"/><path class="e" d="M406.77,216.91l15.61,15.61h-70.5a5.72,5.72,0,0,0-5.72,5.71V244a5.72,5.72,0,0,0,5.72,5.71h70.5l-15.61,15.61a5.71,5.71,0,0,0,0,8.09l4,4a5.72,5.72,0,0,0,8.08,0l32.26-32.27a5.7,5.7,0,0,0,0-8.08l-32.26-32.27a5.72,5.72,0,0,0-8.08,0l-4,4.05a5.7,5.7,0,0,0,0,8.08Z"/><path class="e" d="M105.23,265.27,89.62,249.66h70.5a5.72,5.72,0,0,0,5.72-5.71v-5.72a5.72,5.72,0,0,0-5.72-5.71H89.62l15.61-15.61a5.7,5.7,0,0,0,0-8.08l-4-4.05a5.72,5.72,0,0,0-8.08,0L60.85,237.05a5.7,5.7,0,0,0,0,8.08L93.11,277.4a5.72,5.72,0,0,0,8.08,0l4-4a5.71,5.71,0,0,0,0-8.09Z"/><path class="a" d="M345.51,117.38h22.08l-49.86,49.86a5.72,5.72,0,0,0,0,8.08l4,4a5.72,5.72,0,0,0,8.08,0l49.86-49.86v22.08a5.72,5.72,0,0,0,5.71,5.72h5.72a5.72,5.72,0,0,0,5.71-5.72V106a5.71,5.71,0,0,0-5.71-5.71H345.51a5.72,5.72,0,0,0-5.72,5.71v5.72a5.72,5.72,0,0,0,5.72,5.71Z"/><path class="e" d="M132.29,151.58V129.5l49.86,49.86a5.72,5.72,0,0,0,8.08,0l4-4a5.72,5.72,0,0,0,0-8.08l-49.86-49.86h22.08a5.72,5.72,0,0,0,5.72-5.71V106a5.72,5.72,0,0,0-5.72-5.71H120.86a5.71,5.71,0,0,0-5.71,5.71v45.63a5.72,5.72,0,0,0,5.71,5.72h5.72a5.72,5.72,0,0,0,5.71-5.72Z"/><path class="e" d="M231.82,90.32l15.61-15.61v70.51a5.71,5.71,0,0,0,5.71,5.71h5.72a5.71,5.71,0,0,0,5.71-5.71V74.71l15.61,15.61a5.71,5.71,0,0,0,8.09,0l4-4a5.72,5.72,0,0,0,0-8.08L260,45.94a5.72,5.72,0,0,0-8.08,0L219.69,78.2a5.72,5.72,0,0,0,0,8.08l4,4a5.71,5.71,0,0,0,8.09,0Z"/></svg>