<svg xmlns="http://www.w3.org/2000/svg" viewBox="0 0 512 512"><defs><style>.a{fill:#26522e;}.b{fill:#4d975a;}.c{fill:#d19132;}.d{fill:#e6e6e6;}.e{fill:#6b6c6a;}</style></defs><title>BI-31</title><path class="a" d="M470.31,379.73h0l-7.11-4.1h0l-3.35-1.94a235.39,235.39,0,0,1-407.7,0l-3.35,1.94h0l-7.11,4.1h0L34.3,384a256,256,0,0,0,443.4,0Z"/><path class="b" d="M0,256A256,256,0,0,0,34.3,384l7.36-4.25h0l3.46-2h0l7-4.06A235.38,235.38,0,0,1,20.62,256C20.62,126.87,126.87,20.62,256,20.62V0C115.56,0,0,115.56,0,256Z"/><path class="c" d="M512,256C512,115.56,396.43,0,256,0V20.62c129.13,0,235.38,106.25,235.38,235.38a235.38,235.38,0,0,1-31.53,117.69l7,4.06h0l3.46,2h0L477.7,384A256,256,0,0,0,512,256Z"/><circle class="d" cx="256" cy="256" r="210.81"/><path d="M134.63,272.29v-2.35c0,.8-.19,1.51-.23,2.28Z"/><path class="a" d="M301,253.61H174.14V164.37a4.7,4.7,0,0,0-4.7-4.7h-9.39a4.69,4.69,0,0,0-4.7,4.7V263a9.38,9.38,0,0,0,9.39,9.39H301a4.69,4.69,0,0,0,4.7-4.69v-9.4A4.69,4.69,0,0,0,301,253.61Z"/><path class="c" d="M375,82.32A3.08,3.08,0,0,0,373,81.18L353.61,79a4.64,4.64,0,0,0-4.13,7.5l5,6.28-56.8,45.75a9.31,9.31,0,0,0-3.43-.66,9.21,9.21,0,0,0-9.21,9.22,10.26,10.26,0,0,0,.13,1.36l-18.3,14.64a9.18,9.18,0,0,0-3.33-.65,9.28,9.28,0,0,0-3.34.65l-18.3-14.64a8.83,8.83,0,0,0,.14-1.36A9.22,9.22,0,1,0,224,149.48L204.49,169a9.07,9.07,0,0,0-2.35-.34,9.22,9.22,0,1,0,9.21,9.21,9.07,9.07,0,0,0-.34-2.35L230.5,156a9.07,9.07,0,0,0,2.35.34,9.27,9.27,0,0,0,3.34-.64l18.3,14.64a8.59,8.59,0,0,0-.13,1.36,9.21,9.21,0,1,0,18.42,0,10.11,10.11,0,0,0-.13-1.36L291,155.69a9.18,9.18,0,0,0,12.55-8.57,8.55,8.55,0,0,0-.09-1.25L360.3,100l5,6.29a4.63,4.63,0,0,0,8.22-2.39l2.14-19.35A3.06,3.06,0,0,0,375,82.32Z"/><rect class="a" x="192.92" y="205.48" width="18.43" height="30.72" rx="3.07"/><rect class="a" x="223.64" y="174.76" width="18.43" height="61.43" rx="3.07"/><rect class="b" x="285.07" y="174.76" width="18.43" height="61.43" rx="3.07"/><rect class="b" x="254.35" y="199.33" width="18.43" height="36.86" rx="3.07"/><path class="e" d="M430,277.19a20.26,20.26,0,0,1-20.24,20.27H389.54V338A40.51,40.51,0,0,1,349,378.49H308.52V419h-162V306.85a121.41,121.41,0,0,1,81-211.94h46.9a131.55,131.55,0,0,1,45.46,8.1l.06,0-36.29,29a99.76,99.76,0,1,0,27.21,25.76L355,122.49a131.08,131.08,0,0,1,27,28.28c15.6,22.16,33,88.38,46.26,118.21A20.18,20.18,0,0,1,430,277.19Z"/></svg>