<svg xmlns="http://www.w3.org/2000/svg" viewBox="0 0 512 512"><defs><style>.a{fill:#26522e;}.b{fill:#4d975a;}.c{fill:#d19132;}.d{fill:#333;}.e{fill:#6b6c6a;}</style></defs><title>BI-33</title><path class="a" d="M470.31,379.73h0l-7.11-4.1h0l-3.35-1.94a235.39,235.39,0,0,1-407.7,0l-3.35,1.94h0l-7.11,4.1h0L34.3,384a256,256,0,0,0,443.4,0Z"/><path class="b" d="M0,256A256,256,0,0,0,34.3,384l7.36-4.25h0l3.46-2h0l7-4.06A235.38,235.38,0,0,1,20.62,256C20.62,126.87,126.87,20.62,256,20.62V0C115.56,0,0,115.56,0,256Z"/><path class="c" d="M512,256C512,115.56,396.43,0,256,0V20.62c129.13,0,235.38,106.25,235.38,235.38a235.38,235.38,0,0,1-31.53,117.69l7,4.06h0l3.46,2h0L477.7,384A256,256,0,0,0,512,256Z"/><path class="d" d="M135.05,252.6l43.84-77.51h65.78V120a45.25,45.25,0,0,0-89.11-11.19c-.57,0-1-.14-1.56-.14A45.37,45.37,0,0,0,108.67,154a41.77,41.77,0,0,0,1.2,9.92,56.17,56.17,0,0,0-29.32,77.13A56.46,56.46,0,0,0,87,342.35a51.57,51.57,0,0,0-1,10,51,51,0,0,0,51,51,47.65,47.65,0,0,0,8.5-.85,50.88,50.88,0,0,0,99.17-16.15v-6Z"/><path class="e" d="M460,290a56.39,56.39,0,0,0-28.55-48.95,55.61,55.61,0,0,0,5.88-24.72,56.67,56.67,0,0,0-35.2-52.41A44.93,44.93,0,0,0,358,108.67c-.57,0-1.06.14-1.56.14A45.25,45.25,0,0,0,267.33,120v55.09h65.78L377,252.6,267.33,380.37v6a50.88,50.88,0,0,0,99.17,16.15,47.65,47.65,0,0,0,8.5.85,51,51,0,0,0,51-51,51.57,51.57,0,0,0-1-10A56.67,56.67,0,0,0,460,290Z"/><polygon class="c" points="325.68 187.84 357.6 244.29 321.94 244.29 297.52 187.84 325.68 187.84"/><polygon class="b" points="280.52 187.84 304.93 244.29 207.07 244.29 231.48 187.84 280.52 187.84"/><polygon class="a" points="186.32 187.84 214.48 187.84 190.06 244.29 154.4 244.29 186.32 187.84"/><path class="a" d="M154.4,255.58h35.52l43.4,88.79a1.07,1.07,0,0,1-1.77,1.17Z"/><path class="b" d="M206.68,255.58h98.64L257,367.83a1.06,1.06,0,0,1-1.94,0Z"/><path class="c" d="M278.68,344.37l43.4-88.79H357.6L280.45,345.5a1.06,1.06,0,0,1-1.77-1.13Z"/></svg>