<svg xmlns="http://www.w3.org/2000/svg" viewBox="0 0 512 512"><defs><style>.a{fill:#d19132;}.b{fill:#333;}.c{fill:#6b6c6a;}.d{fill:#26522e;}.e{fill:#4d975a;}</style></defs><title>BI-36</title><path class="a" d="M372.42,95.1A7.44,7.44,0,0,1,365,87.67V80.24a7.44,7.44,0,0,1,7.44-7.44h59.34a7.44,7.44,0,0,1,7.44,7.44v59.34a7.44,7.44,0,0,1-7.44,7.44h-7.43a7.44,7.44,0,0,1-7.43-7.44V110.87l-37.44,37.44a7.44,7.44,0,0,1-10.51,0l-5.26-5.26a7.44,7.44,0,0,1,0-10.51L401.13,95.1Z"/><path class="b" d="M452.09,224.55l20.31,20.3H419.45a7.43,7.43,0,0,0-7.43,7.43v7.44a7.43,7.43,0,0,0,7.43,7.43H472.4l-20.31,20.3a7.45,7.45,0,0,0,0,10.52l5.26,5.25a7.44,7.44,0,0,0,10.51,0l42-42a7.43,7.43,0,0,0,0-10.52l-42-42a7.44,7.44,0,0,0-10.51,0L452.09,214a7.45,7.45,0,0,0,0,10.52Z"/><path class="c" d="M95.1,139.58V110.87l37.44,37.44a7.44,7.44,0,0,0,10.51,0l5.26-5.26a7.44,7.44,0,0,0,0-10.51L110.87,95.1h28.71A7.44,7.44,0,0,0,147,87.67V80.24a7.44,7.44,0,0,0-7.44-7.44H80.24a7.44,7.44,0,0,0-7.44,7.44v59.34A7.44,7.44,0,0,0,80.24,147h7.43a7.44,7.44,0,0,0,7.43-7.44Z"/><path class="b" d="M224.55,59.91l20.3-20.31v53a7.43,7.43,0,0,0,7.43,7.43h7.44a7.43,7.43,0,0,0,7.43-7.43V39.6l20.3,20.31a7.45,7.45,0,0,0,10.52,0l5.25-5.26a7.44,7.44,0,0,0,0-10.51l-42-42a7.43,7.43,0,0,0-10.52,0l-42,42a7.44,7.44,0,0,0,0,10.51L214,59.91a7.45,7.45,0,0,0,10.52,0Z"/><path class="b" d="M59.91,287.45,39.6,267.15h53a7.43,7.43,0,0,0,7.43-7.43v-7.44a7.43,7.43,0,0,0-7.43-7.43H39.6l20.31-20.3a7.45,7.45,0,0,0,0-10.52l-5.26-5.25a7.44,7.44,0,0,0-10.51,0l-42,42a7.43,7.43,0,0,0,0,10.52l42,42a7.44,7.44,0,0,0,10.51,0L59.91,298a7.45,7.45,0,0,0,0-10.52Z"/><path class="c" d="M139.58,416.9H110.87l37.44-37.44a7.44,7.44,0,0,0,0-10.51l-5.26-5.26a7.44,7.44,0,0,0-10.51,0L95.1,401.13V372.42A7.44,7.44,0,0,0,87.67,365H80.24a7.44,7.44,0,0,0-7.44,7.44v59.34a7.44,7.44,0,0,0,7.44,7.44h59.34a7.44,7.44,0,0,0,7.44-7.44v-7.43a7.44,7.44,0,0,0-7.44-7.43Z"/><path class="b" d="M287.45,452.09l-20.3,20.31V419.45a7.43,7.43,0,0,0-7.43-7.43h-7.44a7.43,7.43,0,0,0-7.43,7.43V472.4l-20.3-20.31a7.45,7.45,0,0,0-10.52,0l-5.25,5.26a7.44,7.44,0,0,0,0,10.51l42,42a7.43,7.43,0,0,0,10.52,0l42-42a7.44,7.44,0,0,0,0-10.51L298,452.09a7.45,7.45,0,0,0-10.52,0Z"/><path class="c" d="M416.9,372.42v28.71l-37.44-37.44a7.44,7.44,0,0,0-10.51,0L363.69,369a7.44,7.44,0,0,0,0,10.51l37.44,37.44H372.42a7.44,7.44,0,0,0-7.44,7.43v7.43a7.44,7.44,0,0,0,7.44,7.44h59.34a7.44,7.44,0,0,0,7.44-7.44V372.42a7.44,7.44,0,0,0-7.44-7.44h-7.43a7.44,7.44,0,0,0-7.43,7.44Z"/><path class="d" d="M215.56,126.58A32.26,32.26,0,0,0,184.32,151c-.41,0-.71-.1-1.12-.1a32.38,32.38,0,0,0-32.35,32.35,29.58,29.58,0,0,0,.86,7.08,40.08,40.08,0,0,0-20.93,55.05,40.29,40.29,0,0,0,4.6,72.29,37.56,37.56,0,0,0-.71,7.13,36.38,36.38,0,0,0,36.4,36.4,33.76,33.76,0,0,0,6.07-.61A36.31,36.31,0,0,0,247.91,349V158.94A32.39,32.39,0,0,0,215.56,126.58Z"/><path class="e" d="M401.59,280.27a40.25,40.25,0,0,0-20.37-34.94,39.76,39.76,0,0,0,4.2-17.64,40.46,40.46,0,0,0-25.13-37.41,32.05,32.05,0,0,0-31.49-39.43c-.41,0-.76.1-1.12.1a32.29,32.29,0,0,0-63.59,8V349a36.31,36.31,0,0,0,70.77,11.52,33.76,33.76,0,0,0,6.07.61,36.38,36.38,0,0,0,36.4-36.4,37.56,37.56,0,0,0-.71-7.13A40.43,40.43,0,0,0,401.59,280.27Z"/></svg>