<svg xmlns="http://www.w3.org/2000/svg" viewBox="0 0 512 512"><defs><style>.a{fill:#26522e;}.b{fill:#d19132;}</style></defs><title>Jornada-23</title><circle class="a" cx="256" cy="128" r="128" transform="translate(-15.53 218.51) rotate(-45)"/><path class="a" d="M480,422.39V464a48,48,0,0,1-48,48H403.42a150.79,150.79,0,0,0,3.16-30.77c0-83-67.54-150.58-150.58-150.58S105.42,398.21,105.42,481.23A150.79,150.79,0,0,0,108.58,512H80a48,48,0,0,1-48-48V422.39A134.43,134.43,0,0,1,166.39,288H183.1a174.08,174.08,0,0,0,145.8,0h16.71A134.42,134.42,0,0,1,480,422.39Z"/><path class="b" d="M172,512a89.63,89.63,0,0,1-4.11-15.18h49.19L228.44,512h55.12L295,496.82h49.18A88.7,88.7,0,0,1,340,512h32.75a120.73,120.73,0,1,0-233.54,0Zm84-120.33a89.65,89.65,0,0,1,88.13,74H298.42a31,31,0,0,0-26.84-15.58H240.43a31,31,0,0,0-26.83,15.58H167.88A89.64,89.64,0,0,1,256,391.67Z"/></svg>