<svg xmlns="http://www.w3.org/2000/svg" viewBox="0 0 512 512"><defs><style>.a{fill:#4d975a;}.b{fill:#26522e;}.c{fill:#d19132;}</style></defs><title>Jornada-32</title><path class="a" d="M182.13,427.1a37.46,37.46,0,0,1-37.53,37.53H75.24A37.53,37.53,0,0,1,37.7,427.1a39,39,0,0,1,.25-4.35v0a37.53,37.53,0,0,1,37.29-33.17H144.6a37.52,37.52,0,0,1,37.53,37.54Z"/><ellipse class="b" cx="263.71" cy="114.19" rx="115.41" ry="114.19"/><path class="b" d="M474.3,377.31v12.27A52.92,52.92,0,0,0,436.76,374H401.3a157.53,157.53,0,0,0-290.61,0H75.24A52.92,52.92,0,0,0,37.7,389.58V377.31a131,131,0,0,1,131-131H185a169.65,169.65,0,0,0,142.08,0h16.28A131,131,0,0,1,474.3,377.31Z"/><path class="a" d="M138.62,374a132.21,132.21,0,0,1,234.76,0h-6a52.66,52.66,0,0,0-25.81,6.71,101.27,101.27,0,0,0-171.18,0A52.76,52.76,0,0,0,144.6,374Z"/><path class="c" d="M285.58,471.52a6.53,6.53,0,0,1-9.17,1l-10.65-7.91-16.71-12.39a16.33,16.33,0,0,1-6.12-12.74V376a6.54,6.54,0,0,1,6.53-6.54h13.07a6.53,6.53,0,0,1,6.53,6.54v58.77l23.67,17.35a6.54,6.54,0,0,1,1,9.18h0l-2.65,3.31Z"/><path class="a" d="M463.31,453.64a37.47,37.47,0,0,1-26.55,11H367.4a37.54,37.54,0,0,1-26.55-64.08,38.13,38.13,0,0,1,8-6.1,37.4,37.4,0,0,1,18.54-4.89h69.36a37.56,37.56,0,0,1,37.29,33.17h0a39.13,39.13,0,0,1,.25,4.36A37.43,37.43,0,0,1,463.31,453.64Z"/><path class="b" d="M474.3,389.58A52.92,52.92,0,0,0,436.76,374H401.3a157.53,157.53,0,0,0-290.61,0H75.24A52.92,52.92,0,0,0,37.7,389.58V377.31a131,131,0,0,1,131-131H185a169.65,169.65,0,0,0,142.08,0h16.28a131,131,0,0,1,131,131Z"/><path class="a" d="M190.54,512H148.75a131.53,131.53,0,0,1-16.9-31.8H144.6a53,53,0,0,0,19.19-3.59A101.28,101.28,0,0,0,190.54,512Z"/><path class="a" d="M380.15,480.2a131.53,131.53,0,0,1-16.9,31.8H321.46a101.34,101.34,0,0,0,26.74-35.39,53,53,0,0,0,19.2,3.59Z"/></svg>