<svg xmlns="http://www.w3.org/2000/svg" viewBox="0 0 512 512"><defs><style>.a{fill:#26522e;}.b{fill:#d19132;}</style></defs><title>Jornada-22</title><path class="a" d="M491.56,167.57h-6.81V126.7c0-38.15-84.48-68.13-190.75-68.13-40,0-76.93,4.25-107.4,11.59a105.5,105.5,0,0,1-.43,70.16H403a27.26,27.26,0,0,1,27.25,27.25v109A27.26,27.26,0,0,1,403,303.83H185a27.26,27.26,0,0,1-27.25-27.25V182.65A104.84,104.84,0,0,1,87.2,209.81a101.36,101.36,0,0,1-11.21-.6v46.93a20.45,20.45,0,0,0,20.44,20.44h6.81V412.83a27.26,27.26,0,0,0,27.25,27.25v27.25a27.26,27.26,0,0,0,27.26,27.25H185a27.26,27.26,0,0,0,27.25-27.25V440.08h163.5v27.25A27.26,27.26,0,0,0,403,494.58h27.25a27.26,27.26,0,0,0,27.25-27.25V440.08H463c13.62,0,21.8-10.9,21.8-21.8V276.58h6.81A20.45,20.45,0,0,0,512,256.14V188A20.44,20.44,0,0,0,491.56,167.57ZM171.37,399.2A27.25,27.25,0,1,1,198.62,372,27.26,27.26,0,0,1,171.37,399.2Zm245.25,0A27.25,27.25,0,1,1,443.87,372,27.26,27.26,0,0,1,416.62,399.2Z"/><path class="b" d="M87.2,17.42a87.2,87.2,0,1,0,87.2,87.2A87.19,87.19,0,0,0,87.2,17.42Zm32.52,110.06h0l-7,8.79a5.64,5.64,0,0,1-7.91.88h0L81.22,119.66a14.08,14.08,0,0,1-5.27-11V54a5.63,5.63,0,0,1,5.63-5.63H92.83A5.63,5.63,0,0,1,98.45,54v50.63l20.4,14.95a5.62,5.62,0,0,1,.88,7.9Z"/></svg>