<svg xmlns="http://www.w3.org/2000/svg" viewBox="0 0 512 512"><defs><style>.a{fill:#26522e;}.b{fill:#f2f2f2;}</style></defs><title>Jornada-21</title><path class="a" d="M499.2,384H486.4V297.52a38.38,38.38,0,0,0-11.28-27.11L395.2,190.48a38.43,38.43,0,0,0-27.12-11.28H332.8V140.8a38.38,38.38,0,0,0-38.39-38.4H38.4A38.42,38.42,0,0,0,0,140.8v256a38.42,38.42,0,0,0,38.4,38.4H51.21a76.8,76.8,0,1,0,153.59,0H307.2a76.81,76.81,0,0,0,153.61,0H499.2A12.83,12.83,0,0,0,512,422.4V396.8A12.84,12.84,0,0,0,499.2,384ZM128,473.6a38.4,38.4,0,1,1,38.39-38.4A38.4,38.4,0,0,1,128,473.6Zm256,0a38.4,38.4,0,1,1,38.4-38.4A38.42,38.42,0,0,1,384,473.6Zm64-166.4H332.8V217.6h35.28L448,297.52Z"/><path class="b" d="M166.4,147.2a80,80,0,1,0,80,80A80,80,0,0,0,166.4,147.2Zm29.83,101h0l-6.45,8.06a5.15,5.15,0,0,1-7.25.81h0l-21.62-16a12.93,12.93,0,0,1-4.83-10.07V180.75a5.16,5.16,0,0,1,5.16-5.16h10.32a5.16,5.16,0,0,1,5.16,5.16V227.2l18.71,13.71a5.15,5.15,0,0,1,.81,7.25Z"/></svg>