<svg xmlns="http://www.w3.org/2000/svg" viewBox="0 0 512 512"><defs><style>.a{fill:#26522e;}.b{fill:#d19132;}.c{fill:#4d975a;}.d{fill:#333;}.e{fill:#6b6c6a;}</style></defs><title>Jornada-24</title><path class="a" d="M59.76,513.16c-14.13,0-27.72-3.38-38.25-9.51C7.84,495.68,0,483.47,0,470.14V308.49H24.58V470.14c0,9.83,16.44,18.44,35.18,18.44H452.24c18.74,0,35.18-8.61,35.18-18.44V308.49H512V470.14c0,13.33-7.84,25.54-21.51,33.51-10.53,6.13-24.12,9.51-38.25,9.51Z"/><path class="b" d="M487.42,308.49V43c0-9.82-16.44-18.44-35.18-18.44H256V0H452.24C466.37,0,480,3.38,490.49,9.51,504.16,17.48,512,29.69,512,43V308.49Z"/><path class="c" d="M0,308.49V43C0,29.69,7.84,17.48,21.51,9.51,32,3.38,45.63,0,59.76,0H256V24.58H59.76C41,24.58,24.58,33.2,24.58,43V308.49Z"/><path class="d" d="M194.31,395.67A31.32,31.32,0,0,1,163,427H105a31.35,31.35,0,0,1-31.36-31.35,33.39,33.39,0,0,1,.21-3.63v0A31.35,31.35,0,0,1,105,364.32H163a31.34,31.34,0,0,1,31.35,31.35Z"/><circle class="d" cx="256" cy="142.91" r="92.31"/><path class="d" d="M438.32,354.09v10.24a44.23,44.23,0,0,0-31.36-13H377.35a131.57,131.57,0,0,0-242.71,0H105a44.23,44.23,0,0,0-31.36,13V354.09A109.41,109.41,0,0,1,183.07,244.71h13.6a141.79,141.79,0,0,0,118.66,0h13.6A109.41,109.41,0,0,1,438.32,354.09Z"/><path class="a" d="M105,427a31.35,31.35,0,0,1-31.36-31.35,33.39,33.39,0,0,1,.21-3.63v0A31.35,31.35,0,0,1,105,364.32H163a31.35,31.35,0,1,1,0,62.7Z"/><path class="d" d="M158,351.32a110.42,110.42,0,0,1,196.06,0h-5a44.06,44.06,0,0,0-21.56,5.6,84.56,84.56,0,0,0-143,0,44.06,44.06,0,0,0-21.56-5.6Z"/><path class="d" d="M280.71,432.77a5.45,5.45,0,0,1-7.66.85l-8.9-6.6L250.2,416.67A13.64,13.64,0,0,1,245.09,406V353a5.46,5.46,0,0,1,5.45-5.46h10.91A5.45,5.45,0,0,1,266.9,353v49.08l19.78,14.5a5.45,5.45,0,0,1,.85,7.66h0L285.31,427Z"/><path class="d" d="M429.14,417.84A31.3,31.3,0,0,1,407,427H349a31.35,31.35,0,1,1,0-62.7H407A31.37,31.37,0,0,1,438.11,392h0a33.72,33.72,0,0,1,.21,3.64A31.29,31.29,0,0,1,429.14,417.84Z"/><path class="d" d="M438.32,364.33a44.23,44.23,0,0,0-31.36-13H377.35a131.57,131.57,0,0,0-242.71,0H105a44.23,44.23,0,0,0-31.36,13V354.09A109.41,109.41,0,0,1,183.07,244.71h13.6a141.79,141.79,0,0,0,118.66,0h13.6A109.41,109.41,0,0,1,438.32,354.09Z"/><path class="b" d="M287.53,424.24h0L285.31,427l-4.6,5.75a5.45,5.45,0,0,1-7.66.85l-8.9-6.6L250.2,416.67A13.64,13.64,0,0,1,245.09,406V353a5.46,5.46,0,0,1,5.45-5.46h10.91A5.45,5.45,0,0,1,266.9,353v49.08l19.78,14.5A5.45,5.45,0,0,1,287.53,424.24Z"/><path class="e" d="M201.33,466.57h-34.9A110.08,110.08,0,0,1,152.31,440H163a44.25,44.25,0,0,0,16-3A84.58,84.58,0,0,0,201.33,466.57Z"/><path class="e" d="M359.69,440a110.08,110.08,0,0,1-14.12,26.55h-34.9A84.67,84.67,0,0,0,333,437a44.21,44.21,0,0,0,16,3Z"/><path class="e" d="M354,351.32h-5a44.06,44.06,0,0,0-21.56,5.6,84.56,84.56,0,0,0-143,0,44.06,44.06,0,0,0-21.56-5.6h-5a110.42,110.42,0,0,1,196.06,0Z"/><path class="a" d="M438.32,395.67A31.34,31.34,0,0,1,407,427H349a31.35,31.35,0,1,1,0-62.7H407A31.37,31.37,0,0,1,438.11,392h0A33.72,33.72,0,0,1,438.32,395.67Z"/></svg>