<svg xmlns="http://www.w3.org/2000/svg" viewBox="0 0 512 512"><defs><style>.a{fill:#26522e;}.b{fill:#4d975a;}.c{fill:#d19132;}</style></defs><title>Jornada-33</title><path class="a" d="M470.31,379.73h0l-7.11-4.1h0l-3.35-1.94a235.39,235.39,0,0,1-407.7,0l-3.35,1.94h0l-7.11,4.1h0L34.3,384a256,256,0,0,0,443.4,0Z"/><path class="b" d="M0,256A256,256,0,0,0,34.3,384l7.36-4.25h0l3.46-2h0l7-4.06A235.38,235.38,0,0,1,20.62,256C20.62,126.87,126.87,20.62,256,20.62V0C115.56,0,0,115.56,0,256Z"/><path class="c" d="M512,256C512,115.56,396.43,0,256,0V20.62c129.13,0,235.38,106.25,235.38,235.38a235.38,235.38,0,0,1-31.53,117.69l7,4.06h0l3.46,2h0L477.7,384A256,256,0,0,0,512,256Z"/><path class="b" d="M194.31,412.26A31.32,31.32,0,0,1,163,443.61h-3.21a211.69,211.69,0,0,1-70.4-58.49A31.12,31.12,0,0,1,105,380.91H163a31.34,31.34,0,0,1,31.35,31.35Z"/><circle class="a" cx="256" cy="159.5" r="92.31"/><path class="a" d="M438,362.43q-3.63,6.21-7.69,12.15A44,44,0,0,0,407,367.91H377.35a131.57,131.57,0,0,0-242.71,0H105a44,44,0,0,0-23.36,6.67q-4.05-5.93-7.69-12.15A109.42,109.42,0,0,1,183.07,261.3h13.6a141.69,141.69,0,0,0,118.66,0h13.6A109.42,109.42,0,0,1,438,362.43Z"/><path class="b" d="M158,367.91a110.42,110.42,0,0,1,196.06,0h-5a44,44,0,0,0-21.56,5.61,84.57,84.57,0,0,0-143,0,44.06,44.06,0,0,0-21.56-5.6Z"/><path class="c" d="M280.71,449.36a5.45,5.45,0,0,1-7.66.85l-8.9-6.6L250.2,433.26a13.64,13.64,0,0,1-5.11-10.65v-53a5.46,5.46,0,0,1,5.45-5.46h10.91a5.45,5.45,0,0,1,5.45,5.46v49.08l19.78,14.5a5.45,5.45,0,0,1,.85,7.66h0l-2.21,2.77Z"/><path class="b" d="M422.65,385.13a211.86,211.86,0,0,1-70.4,58.48H349a31.35,31.35,0,0,1-22.18-53.52,31.81,31.81,0,0,1,6.7-5.1A31.27,31.27,0,0,1,349,380.91H407A31,31,0,0,1,422.65,385.13Z"/><path class="a" d="M438,362.43q-3.63,6.21-7.69,12.15A44,44,0,0,0,407,367.91H377.35a131.57,131.57,0,0,0-242.71,0H105a44,44,0,0,0-23.36,6.67q-4.05-5.93-7.69-12.15A109.42,109.42,0,0,1,183.07,261.3h13.6a141.69,141.69,0,0,0,118.66,0h13.6A109.42,109.42,0,0,1,438,362.43Z"/></svg>