<svg xmlns="http://www.w3.org/2000/svg" xmlns:xlink="http://www.w3.org/1999/xlink" viewBox="0 0 512 512"><defs><style>.a{fill:none;}.b{fill:#26522e;}.c{fill:#4d975a;}.d{fill:#d19132;}.e{fill:#e6e6e6;}.f{clip-path:url(#a);}.g{fill:#333;}.h{fill:#6b6c6a;}</style><clipPath id="a"><circle class="a" cx="256" cy="256" r="210.81"/></clipPath></defs><title>Jornada-29</title><path class="b" d="M470.31,379.73h0l-7.11-4.1h0l-3.35-1.94a235.39,235.39,0,0,1-407.7,0l-3.35,1.94h0l-7.11,4.1h0L34.3,384a256,256,0,0,0,443.4,0Z"/><path class="c" d="M0,256A256,256,0,0,0,34.3,384l7.36-4.25h0l3.46-2h0l7-4.06A235.38,235.38,0,0,1,20.62,256C20.62,126.87,126.87,20.62,256,20.62V0C115.56,0,0,115.56,0,256Z"/><path class="d" d="M512,256C512,115.56,396.43,0,256,0V20.62c129.13,0,235.38,106.25,235.38,235.38a235.38,235.38,0,0,1-31.53,117.69l7,4.06h0l3.46,2h0L477.7,384A256,256,0,0,0,512,256Z"/><circle class="e" cx="256" cy="256" r="210.81"/><g class="f"><circle class="g" cx="256" cy="159.5" r="92.31"/><path class="g" d="M438.32,370.68v4.07a44.29,44.29,0,0,0-31.33-13,44.88,44.88,0,0,0-9.44,1l-20.49,4.45a131.56,131.56,0,0,0-242.12,0l-20.49-4.44a44.88,44.88,0,0,0-9.44-1,44.29,44.29,0,0,0-31.33,13v-4.07A109.41,109.41,0,0,1,183.07,261.3h13.6a141.69,141.69,0,0,0,118.66,0h13.6A109.41,109.41,0,0,1,438.32,370.68Z"/><path class="h" d="M350.33,462.75A44.35,44.35,0,0,1,313,394.41a45,45,0,0,1,7.71-9.05,44.49,44.49,0,0,1,20.19-10.3l15.37-3.34a111,111,0,0,0-200.62,0l15.37,3.34a44.49,44.49,0,0,1,20.17,10.28,45,45,0,0,1,7.71,9A44.34,44.34,0,0,1,153.51,462a111,111,0,0,0,205,0A43.86,43.86,0,0,1,350.33,462.75Zm-63-21.44-6.76,8.46a5.43,5.43,0,0,1-7.62.84l-22.67-16.82a13.54,13.54,0,0,1-5.08-10.57V370.58a5.41,5.41,0,0,1,5.42-5.42h10.82a5.41,5.41,0,0,1,5.42,5.42v48.73l19.63,14.38A5.43,5.43,0,0,1,287.3,441.31Z"/><path class="g" d="M192.29,425.05A31.33,31.33,0,0,1,155,449l-6.36-1.38L98.4,436.76a31.35,31.35,0,0,1-24-37.28,30.93,30.93,0,0,1,1-3.52,31.37,31.37,0,0,1,36.31-20.48L150.75,384l17.55,3.81A31.33,31.33,0,0,1,182.56,395a31.81,31.81,0,0,1,5.46,6.41A31.25,31.25,0,0,1,192.29,425.05Z"/><path class="g" d="M433.33,423.08a31.32,31.32,0,0,1-19.73,13.68l-50.25,10.9L357,449a31.35,31.35,0,0,1-33-47.6,31.81,31.81,0,0,1,5.46-6.41,31.33,31.33,0,0,1,14.26-7.27L361.25,384l39.06-8.47A31.37,31.37,0,0,1,436.62,396a30.93,30.93,0,0,1,1,3.52A31.3,31.3,0,0,1,433.33,423.08Z"/></g></svg>