<svg xmlns="http://www.w3.org/2000/svg" viewBox="0 0 512 512"><defs><style>.a{fill:#26522e;}.b{fill:#4d975a;}.c{fill:#d19132;}</style></defs><title>Jornada-31</title><ellipse class="a" cx="256" cy="108.84" rx="110" ry="108.84"/><path class="a" d="M448.5,359.16v35.38a41,41,0,0,1-41.25,40.81H382.69a126.8,126.8,0,0,0,2.71-26.16c0-70.59-58-128-129.4-128s-129.4,57.45-129.4,128a126.8,126.8,0,0,0,2.71,26.16H104.75A41,41,0,0,1,63.5,394.54V359.16c0-63.09,51.74-114.27,115.5-114.27h14.35a151.1,151.1,0,0,0,125.3,0H333C396.77,244.89,448.5,296.07,448.5,359.16Z"/><path class="b" d="M256,306.4A102.8,102.8,0,1,0,358.8,409.2,102.79,102.79,0,0,0,256,306.4Zm0,178.66a75.86,75.86,0,1,1,75.86-75.86A75.84,75.84,0,0,1,256,485.06Z"/><path class="c" d="M284.29,429.08h0l-6.12,7.65a4.89,4.89,0,0,1-6.88.76h0l-20.49-15.2a12.26,12.26,0,0,1-4.59-9.56V365.15a4.89,4.89,0,0,1,4.9-4.89h9.78a4.89,4.89,0,0,1,4.9,4.89V409.2l17.74,13a4.89,4.89,0,0,1,.76,6.88Z"/></svg>