<svg xmlns="http://www.w3.org/2000/svg" viewBox="0 0 512 512"><defs><style>.a{fill:#fbb03b;}.b{fill:#26522e;}.c{fill:#4d975a;}.d{fill:#d19132;}</style></defs><title>Passgeiro-6</title><path class="a" d="M254.75,256.12c.84-.07,1.67-.16,2.5-.24h0Z"/><path class="b" d="M470.31,379.73h0l-7.11-4.1h0l-3.35-1.94a235.39,235.39,0,0,1-407.7,0l-3.35,1.94h0l-7.11,4.1h0L34.3,384a256,256,0,0,0,443.4,0Z"/><path class="c" d="M0,256A256,256,0,0,0,34.3,384l7.36-4.25h0l3.46-2h0l7-4.06A235.38,235.38,0,0,1,20.62,256C20.62,126.87,126.87,20.62,256,20.62V0C115.56,0,0,115.56,0,256Z"/><path class="d" d="M512,256C512,115.56,396.43,0,256,0V20.62c129.13,0,235.38,106.25,235.38,235.38a235.38,235.38,0,0,1-31.53,117.69l7,4.06h0l3.46,2h0L477.7,384A256,256,0,0,0,512,256Z"/><path class="c" d="M256,41.54A215,215,0,0,0,63.16,161.37q-3.18,6.44-5.94,13.11A212.69,212.69,0,0,0,46.28,209q-2.13,9.42-3.41,19.14A215.45,215.45,0,0,0,80.68,381,106.23,106.23,0,0,1,109,327.68L252.86,471.51l3.15,0a215.65,215.65,0,0,0,28.47-1.87l-157-157a105.41,105.41,0,0,1,51.22-16.74L338.07,455.32a213.87,213.87,0,0,0,22.55-10.9L219.69,303.49a137.82,137.82,0,0,0,94.05-7.78H327A106.5,106.5,0,0,1,431.32,381,214,214,0,0,0,471,256.55C471,137.8,374.75,41.54,256,41.54Zm0,228.82A101.38,101.38,0,1,1,357.38,169,101.37,101.37,0,0,1,256,270.36Z"/><path class="b" d="M178.65,295.91a105.41,105.41,0,0,0-51.22,16.74L42.87,228.11q1.27-9.72,3.41-19.14a212.69,212.69,0,0,1,10.94-34.49Z"/></svg>