<svg xmlns="http://www.w3.org/2000/svg" viewBox="0 0 512 512"><defs><style>.a{fill:#d19132;}.b{fill:#26522e;}.c{fill:#4d975a;}.d{fill:#333;}.e{fill:#e6e6e6;}.f{fill:#fbb03b;}.g{fill:#6b6c6a;}</style></defs><title>Passgeiro-12</title><path class="a" d="M493.92,126.27c-14.93-24.9-37.67-39.18-62.38-39.18H256v26H436.25c13.54,0,26.62,8.84,35.86,24.27,9,14.92,13.89,34.64,13.89,55.53v102.4h26V196.8C512,170.75,505.58,145.69,493.92,126.27Z"/><path class="b" d="M486,295.29v23.83c0,20.9-4.93,40.61-13.87,55.5-9.26,15.45-22.34,24.29-35.88,24.29H75.75c-13.74,0-26.49-8.62-35.9-24.28C30.92,359.73,26,340,26,319.12V295.29H0V315.2c0,26.08,6.42,51.13,18.06,70.53,15,24.9,37.69,39.18,62.4,39.18H431.54c24.71,0,47.45-14.28,62.38-39.18C505.58,366.33,512,341.28,512,315.2V295.29Z"/><path class="c" d="M26,192.89c0-20.88,4.93-40.61,13.87-55.55,9.39-15.63,22.14-24.25,35.88-24.25H256v-26H80.46c-24.71,0-47.45,14.28-62.4,39.18C6.42,145.69,0,170.75,0,196.8v98.49H26Z"/><path class="d" d="M169.94,151A105,105,0,1,1,65,256a105,105,0,0,1,105-105m0-10a115,115,0,1,0,81.31,33.68A114.25,114.25,0,0,0,169.94,141Z"/><path class="e" d="M266.32,256A96.4,96.4,0,0,0,84,212.3l53.11,53.23h.12L213.52,342a96.22,96.22,0,0,0,9.59-5.58L156,269.09a58.14,58.14,0,0,0,38.38-3.65h5.59a45,45,0,0,1,45,45v6.13A96,96,0,0,0,266.32,256Zm-96.38-1.27a42.85,42.85,0,1,1,42.84-42.84A42.84,42.84,0,0,1,169.94,254.73Zm-33.59,38.81-60.1-60.26A96.62,96.62,0,0,0,95,316.56v-6.13a44.82,44.82,0,0,1,12.65-31.26,20.72,20.72,0,0,0,2.62,3.2l69.34,69.53a95.52,95.52,0,0,0,13-2.19l-56.06-56.2Z"/><path class="f" d="M183.91,256.43l1.12-.11h0Z"/><path class="d" d="M110.23,282.37l69.34,69.53c-3.17.31-6.38.48-9.63.48a96.23,96.23,0,0,1-75-35.81v-6.13a44.84,44.84,0,0,1,12.65-31.27A20.72,20.72,0,0,0,110.23,282.37Z"/><path class="d" d="M117.8,274.79l18.67,18.72-.12,0-60.1-60.26a95.69,95.69,0,0,1,7.76-21l53.11,53.23A44.81,44.81,0,0,0,116,272.35,10.3,10.3,0,0,0,117.8,274.79Z"/><path class="d" d="M157.35,285.8a95.45,95.45,0,0,1-20.88,7.71L117.8,274.79a10.3,10.3,0,0,1-1.81-2.44,44.81,44.81,0,0,1,21.13-6.82Z"/><path class="g" d="M213.53,342a95.88,95.88,0,0,1-21,7.73L117.8,274.79a10.7,10.7,0,0,1-1.8-2.43,44.66,44.66,0,0,1,21.25-6.83Z"/><path class="d" d="M244.92,310.44v6.13a96.65,96.65,0,0,1-21.81,19.83L156,269.1a58.32,58.32,0,0,0,38.38-3.65h5.6A45,45,0,0,1,244.92,310.44Z"/><circle class="d" cx="169.94" cy="211.89" r="42.84"/><path class="d" d="M396.07,163.74h0l-15.44,15.45c42.26,42.26,41.94,111.1-.72,153.76l15.31,15.31C446.4,297.07,446.79,214.46,396.07,163.74Z"/><path class="d" d="M334.28,225.53,318.84,241a21.75,21.75,0,0,1-.15,30.75L334,287A43.5,43.5,0,0,0,334.28,225.53Z"/><path class="d" d="M365.18,194.64l-15.45,15.45c25.36,25.35,25.17,66.66-.43,92.25h0l15.31,15.31C398.72,283.53,399,228.44,365.18,194.64Z"/></svg>