<svg xmlns="http://www.w3.org/2000/svg" viewBox="0 0 512 512"><defs><style>.a{fill:#26522e;}.b{fill:#333;}.c{fill:#4d975a;}.d{fill:#d19132;}</style></defs><title>Passgeiro-14</title><path class="a" d="M120.51,270.2a66.73,66.73,0,0,0-32.33,10.57l-30-30a2.87,2.87,0,0,1-.84-2V214a2.86,2.86,0,0,1,4.89-2Z"/><circle class="b" cx="169.35" cy="190.08" r="64"/><path class="b" d="M168.38,382.08h-87a24,24,0,0,1-24-24V337.28a66.94,66.94,0,0,1,19.2-47Z"/><path class="b" d="M281.35,337.28v20.79a24,24,0,0,1-24,24h-3.83L146.43,275a87,87,0,0,0,59.37-4.91h8.35A67.22,67.22,0,0,1,281.35,337.28Z"/><path class="c" d="M232.39,382.08H189.5L88.18,280.77a66.73,66.73,0,0,1,32.33-10.57Z"/><path class="a" d="M59.76,432.61c-14.13,0-27.72-3.38-38.25-9.51C7.84,415.13,0,402.92,0,389.59v-81.1H24.58v81.1C24.58,399.41,41,408,59.76,408H452.24c18.74,0,35.18-8.62,35.18-18.44v-81.1H512v81.1c0,13.33-7.84,25.54-21.51,33.51-10.53,6.13-24.12,9.51-38.25,9.51Z"/><path class="d" d="M487.42,308.49V122.41c0-9.82-16.44-18.44-35.18-18.44H256V79.39H452.24c14.13,0,27.72,3.38,38.25,9.51,13.67,8,21.51,20.18,21.51,33.51V308.49Z"/><path class="c" d="M0,308.49V122.41C0,109.08,7.84,96.87,21.51,88.9,32,82.77,45.63,79.39,59.76,79.39H256V104H59.76c-18.74,0-35.18,8.62-35.18,18.44V308.49Z"/><path class="b" d="M406,364.08a9.73,9.73,0,0,1-6.92-2.87l-6.63-6.62a9.77,9.77,0,0,1-.4-13.39,129.86,129.86,0,0,0,0-174.24,9.77,9.77,0,0,1,.4-13.39l6.63-6.62a9.8,9.8,0,0,1,14.22.38,161.92,161.92,0,0,1,41.35,106.74A161.9,161.9,0,0,1,413.3,360.82a9.83,9.83,0,0,1-7.3,3.26Z"/><path class="b" d="M368.51,326.56a9.77,9.77,0,0,1-7-2.88L354.91,317a9.8,9.8,0,0,1-.56-13.22,77.53,77.53,0,0,0,0-99.48,9.82,9.82,0,0,1,.56-13.23l6.64-6.64a9.77,9.77,0,0,1,7-2.88,9.63,9.63,0,0,1,7.37,3.4,106.14,106.14,0,0,1,0,138.17,9.59,9.59,0,0,1-7.37,3.4Z"/><path class="b" d="M330.74,288.8a9.78,9.78,0,0,1-6.95-2.87L317,279.15a9.65,9.65,0,0,1-1.52-11.87,25.3,25.3,0,0,0,0-26.41A9.65,9.65,0,0,1,317,229l6.77-6.77a9.78,9.78,0,0,1,15,1.35,53.74,53.74,0,0,1,0,61,9.7,9.7,0,0,1-8,4.23Z"/></svg>