<svg xmlns="http://www.w3.org/2000/svg" viewBox="0 0 512 512"><defs><style>.a{fill:#26522e;}.b{fill:#d19132;}</style></defs><title>Passgeiro-4</title><path class="a" d="M214.89,104a53.94,53.94,0,1,0-70.25-29.79A54,54,0,0,0,214.89,104Z"/><path class="a" d="M424.46,229.92A28.67,28.67,0,0,0,389.71,209L333.64,223a9.49,9.49,0,0,1-10.47-4.33l-29.56-49.07A105.29,105.29,0,0,0,201,118.81s-74.75,2.59-76.09,59.2V290.48c0,33,23.43,62.36,56.26,66H298a9.57,9.57,0,0,1,9.22,7.06l30.42,127.31A28.65,28.65,0,0,0,372.77,511a29,29,0,0,0,7.32-3.14,28.68,28.68,0,0,0,12.85-32L362.68,357.57c-6.42-29.42-34.57-58.4-64.69-58.42l-68.2-.71,3.74-111.37a47,47,0,0,1,11,12.1l29.58,49.09a66.54,66.54,0,0,0,73.42,30.33l56.07-13.95.1,0A28.65,28.65,0,0,0,424.46,229.92Z"/><path class="b" d="M320.06,500,290.42,375.57l-111.37-.11c-42.18-4.66-73.26-42.57-73.26-85l.64-127a9.55,9.55,0,0,0-9.55-9.55h0a9.56,9.56,0,0,0-9.55,9.55l-.64,127c0,51.83,38.48,101,90.26,104,24.56,1.38,98.4.23,98.4.23l26.14,109.78a9.54,9.54,0,0,0,11.5,7.07h0A9.55,9.55,0,0,0,320.06,500Z"/></svg>