<svg xmlns="http://www.w3.org/2000/svg" viewBox="0 0 512 512"><defs><style>.a{fill:#333;}.b{fill:#26522e;}.c{fill:#4d975a;}.d{fill:#d19132;}</style></defs><title>Passgeiro-3</title><path class="a" d="M424.9,304.65l12.88,9.56h0a3.08,3.08,0,0,0,4.32-.48l3.84-4.81h0a3.07,3.07,0,0,0-.48-4.32l-11.14-8.17V268.76a3.07,3.07,0,0,0-3.08-3.07h-6.15a3.07,3.07,0,0,0-3.07,3.07v29.89A7.67,7.67,0,0,0,424.9,304.65Z"/><circle class="b" cx="163.11" cy="49.95" r="49.95" transform="translate(12.45 129.96) rotate(-45)"/><path class="c" d="M128.33,360.84,72.78,496.51a25,25,0,0,1-46.21-18.94l62-151.49Z"/><path class="b" d="M272.47,274.12a15.46,15.46,0,0,1,2.35-21.72l2.55-2.05a27,27,0,0,0-2.54-1.57l-35.55-19.42a9.12,9.12,0,0,1-3.54-4.47l-12.69-36.1c-6.76-19.36-22-54-48.71-68.91a66,66,0,0,0-21.46-7.09,61.68,61.68,0,0,0-32,4.7c-16.14,4.77-89.92,56.63-89.92,56.63C21,181.48,13.85,191.69,9.38,206L.45,249.2a25,25,0,0,0,49.13,9.45l7.91-39.73a9.32,9.32,0,0,1,3.21-4.72l14.21-9.8s-9.07,37.89-9.14,38.29a60.08,60.08,0,0,0-1.06,8.61,60.71,60.71,0,0,0,20.66,48.63l71.49,62.44a33.46,33.46,0,0,1,11.35,22.38L176.53,489c.84,9.46,9.26,24.25,26.85,22.89a24.94,24.94,0,0,0,22.9-26.84l-9.06-113.65a60.6,60.6,0,0,0-20.49-40.69L142.4,283.27l25.81-95.84c2.81,5.51,20.39,53.91,20.39,53.91,4.06,11.65,11.66,21.53,23.94,30.07l38.61,21.45a25,25,0,0,0,31.25-6.38Z"/><path class="a" d="M474.9,213.57H381.64a37.29,37.29,0,0,0-34.09,22.16l13,16.17a15.47,15.47,0,0,1-2.36,21.72l-13.86,11.15V512H512V247A37.31,37.31,0,0,0,474.9,213.57ZM428.17,344.09a47.66,47.66,0,1,1,47.65-47.66A47.65,47.65,0,0,1,428.17,344.09Z"/><path class="d" d="M321.53,228l-40.26,32.38a5.17,5.17,0,0,0-.79,7.27l3.24,4,20.51,25.5a5.15,5.15,0,0,0,7.26.79l40.27-32.38a5.17,5.17,0,0,0,.78-7.27L332,232.84l-3.24-4A5.17,5.17,0,0,0,321.53,228Z"/></svg>