<svg xmlns="http://www.w3.org/2000/svg" viewBox="0 0 512 512"><defs><style>.a{fill:#26522e;}.b{fill:#4d975a;}.c{fill:#d19132;}.d{fill:#333;}</style></defs><title>Passgeiro-9</title><path class="a" d="M470.31,379.73h0l-7.11-4.1h0l-3.35-1.94a235.39,235.39,0,0,1-407.7,0l-3.35,1.94h0l-7.11,4.1h0L34.3,384a256,256,0,0,0,443.4,0Z"/><path class="b" d="M0,256A256,256,0,0,0,34.3,384l7.36-4.25h0l3.46-2h0l7-4.06A235.38,235.38,0,0,1,20.62,256C20.62,126.87,126.87,20.62,256,20.62V0C115.56,0,0,115.56,0,256Z"/><path class="c" d="M512,256C512,115.56,396.43,0,256,0V20.62c129.13,0,235.38,106.25,235.38,235.38a235.38,235.38,0,0,1-31.53,117.69l7,4.06h0l3.46,2h0L477.7,384A256,256,0,0,0,512,256Z"/><path class="d" d="M178.65,295.37a105.42,105.42,0,0,0-51.22,16.75L42.87,227.57q1.27-9.72,3.41-19.14a212.69,212.69,0,0,1,10.94-34.49Z"/><circle class="a" cx="256" cy="168.44" r="101.38"/><path class="a" d="M252.86,464.79A214.69,214.69,0,0,1,80.68,374.31,106.27,106.27,0,0,1,109,321Z"/><path class="a" d="M431.32,374.32a216,216,0,0,1-70.7,63.38L219.69,296.78A137.76,137.76,0,0,0,313.74,289H327A106.51,106.51,0,0,1,431.32,374.32Z"/><path class="b" d="M338.07,454.78a213.5,213.5,0,0,1-53.59,14.35l-157-157a105.42,105.42,0,0,1,51.22-16.75Z"/></svg>