<svg xmlns="http://www.w3.org/2000/svg" viewBox="0 0 512 512"><defs><style>.a{fill:#333;}.b{fill:#d19132;}.c{fill:#26522e;}.d{fill:#4d975a;}</style></defs><title>Passgeiro-11</title><path class="a" d="M461,281.63H345.75A25.63,25.63,0,0,1,320.13,256V153.5a25.63,25.63,0,0,1,25.62-25.63H461V51.16Q454.69,51,448.25,51c-99.94,0-179.37,28.19-179.37,64.06V153.5h-6.41a19.22,19.22,0,0,0-19.22,19.22v64.06A19.23,19.23,0,0,0,262.47,256h6.41V384.13a25.63,25.63,0,0,0,25.62,25.62v25.63A25.63,25.63,0,0,0,320.13,461h25.62a25.63,25.63,0,0,0,25.63-25.62V409.75H461ZM332.94,371.31a25.63,25.63,0,1,1,25.62-25.62A25.63,25.63,0,0,1,332.94,371.31Z"/><circle class="a" cx="143.91" cy="197.8" r="28.46" transform="translate(-97.71 159.7) rotate(-45)"/><path class="a" d="M124.1,374.89,92.46,452.17a14.22,14.22,0,1,1-26.32-10.78l35.31-86.3Z"/><path class="a" d="M206.21,325.49a8.8,8.8,0,0,1,1.34-12.37L209,312a13.81,13.81,0,0,0-1.43-.9L187.3,300a5.25,5.25,0,0,1-2-2.55l-7.23-20.56c-3.85-11-12.54-30.77-27.75-39.26a37.63,37.63,0,0,0-12.23-4,35.14,35.14,0,0,0-18.24,2.68c-9.19,2.72-51.22,32.26-51.22,32.26-5.65,4.19-9.73,10-12.28,18.13L51.26,311.3a14.25,14.25,0,0,0,28,5.38l4.51-22.63a5.25,5.25,0,0,1,1.83-2.69l8.09-5.58s-5.17,21.58-5.21,21.81a34.11,34.11,0,0,0-.6,4.91,34.62,34.62,0,0,0,11.77,27.7l40.72,35.57a19,19,0,0,1,6.47,12.74l4.74,59.4c.48,5.39,5.27,13.81,15.29,13a14.21,14.21,0,0,0,13.05-15.29l-5.16-64.74a34.52,34.52,0,0,0-11.68-23.18l-30.94-27,14.7-54.6c1.6,3.14,11.62,30.71,11.62,30.71,2.31,6.64,6.64,12.27,13.63,17.13l22,12.22a14.21,14.21,0,0,0,17.79-3.64Z"/><path class="a" d="M234.16,299.24l-22.94,18.44a2.94,2.94,0,0,0-.45,4.14l1.85,2.3,11.68,14.52a2.94,2.94,0,0,0,4.14.45l22.93-18.44a2.94,2.94,0,0,0,.45-4.14L240.14,302l-1.84-2.29A2.94,2.94,0,0,0,234.16,299.24Z"/><path class="b" d="M493.92,39.18C479,14.29,456.25,0,431.54,0H256V26H436.25c13.54,0,26.62,8.84,35.86,24.27,9,14.92,13.89,34.64,13.89,55.53V308.69h26v-199C512,83.66,505.58,58.61,493.92,39.18Z"/><path class="c" d="M486,308.69V406.2c0,20.91-4.93,40.62-13.87,55.51C462.87,477.15,449.79,486,436.25,486H75.75c-13.74,0-26.49-8.62-35.9-24.29C30.92,446.82,26,427.1,26,406.2V308.69H0v93.6c0,26.08,6.42,51.13,18.06,70.53C33,497.71,55.75,512,80.46,512H431.54c24.71,0,47.45-14.29,62.38-39.18,11.66-19.4,18.08-44.45,18.08-70.53v-93.6Z"/><path class="d" d="M26,105.8c0-20.88,4.93-40.61,13.87-55.55C49.26,34.63,62,26,75.75,26H256V0H80.46C55.75,0,33,14.29,18.06,39.18,6.42,58.61,0,83.66,0,109.71v199H26Z"/></svg>