<svg xmlns="http://www.w3.org/2000/svg" viewBox="0 0 512 512"><defs><style>.a{fill:#333;}.b{fill:#26522e;}.c{fill:#4d975a;}.d{fill:#d19132;}</style></defs><title>Passgeiro-1</title><path class="a" d="M512,288H368.08a32,32,0,0,1-32-32V128a32,32,0,0,1,32-32H512V.2Q504.11,0,496.08,0c-124.8,0-224,35.2-224,80v48h-8a24,24,0,0,0-24,24v80a24,24,0,0,0,24,24h8V416a32,32,0,0,0,32,32v32a32,32,0,0,0,32,32h32a32,32,0,0,0,32-32V448H512ZM352.08,400a32,32,0,1,1,32-32A32,32,0,0,1,352.08,400Z"/><circle class="b" cx="116.03" cy="183.32" r="35.53" transform="translate(-95.64 135.74) rotate(-45)"/><path class="c" d="M91.29,404.47,51.77,501A17.76,17.76,0,1,1,18.9,487.51L63,379.74Z"/><path class="b" d="M193.82,342.78a11,11,0,0,1,1.68-15.45l1.8-1.45a18,18,0,0,0-1.79-1.12L170.21,311a6.55,6.55,0,0,1-2.51-3.19l-9-25.68c-4.81-13.77-15.66-38.42-34.65-49a47,47,0,0,0-15.27-5A43.87,43.87,0,0,0,86,231.36c-11.48,3.4-64,40.29-64,40.29-7,5.23-12.15,12.49-15.33,22.64L.32,325.05a17.8,17.8,0,0,0,35,6.73l5.62-28.26a6.6,6.6,0,0,1,2.29-3.36l10.11-7s-6.46,27-6.51,27.25a43.89,43.89,0,0,0-.75,6.12,43.19,43.19,0,0,0,14.7,34.59l50.85,44.42a23.8,23.8,0,0,1,8.08,15.92l5.92,74.17c.59,6.74,6.58,17.25,19.09,16.29a17.75,17.75,0,0,0,16.3-19.1L154.52,412a43.08,43.08,0,0,0-14.58-28.95L101.3,349.29l18.36-68.17c2,3.92,14.51,38.34,14.51,38.34,2.88,8.29,8.29,15.32,17,21.4l27.47,15.25a17.73,17.73,0,0,0,22.22-4.54Z"/><path class="d" d="M228.72,310l-28.64,23a3.68,3.68,0,0,0-.56,5.17l2.3,2.86,14.59,18.14a3.67,3.67,0,0,0,5.17.56l28.64-23a3.66,3.66,0,0,0,.56-5.17L236.2,313.42l-2.31-2.86A3.67,3.67,0,0,0,228.72,310Z"/></svg>