<svg xmlns="http://www.w3.org/2000/svg" viewBox="0 0 512 512"><defs><style>.a{fill:#26522e;}.b{fill:#4d975a;}.c{fill:#d19132;}.d{fill:#e6e6e6;}.e{fill:#333;}</style></defs><title>Passgeiro-8</title><path class="a" d="M470.31,379.73h0l-7.11-4.1h0l-3.35-1.94a235.39,235.39,0,0,1-407.7,0l-3.35,1.94h0l-7.11,4.1h0L34.3,384a256,256,0,0,0,443.4,0Z"/><path class="b" d="M0,256A256,256,0,0,0,34.3,384l7.36-4.25h0l3.46-2h0l7-4.06A235.38,235.38,0,0,1,20.62,256C20.62,126.87,126.87,20.62,256,20.62V0C115.56,0,0,115.56,0,256Z"/><path class="c" d="M512,256C512,115.56,396.43,0,256,0V20.62c129.13,0,235.38,106.25,235.38,235.38a235.38,235.38,0,0,1-31.53,117.69l7,4.06h0l3.46,2h0L477.7,384A256,256,0,0,0,512,256Z"/><path class="d" d="M471,256A214,214,0,0,1,431.32,380.5a216.22,216.22,0,0,1-70.7,63.38A214.52,214.52,0,0,1,256,471l-3.15,0a215.12,215.12,0,0,1-210-243.4q1.27-9.72,3.41-19.14a212.69,212.69,0,0,1,10.94-34.49q2.76-6.67,5.94-13.11A215,215,0,0,1,256,41C374.75,41,471,137.26,471,256Z"/><path class="a" d="M178.65,295.37a105.42,105.42,0,0,0-51.22,16.75L42.87,227.57q1.27-9.72,3.41-19.14a212.69,212.69,0,0,1,10.94-34.49Z"/><circle class="e" cx="256" cy="168.44" r="101.38"/><path class="e" d="M252.86,471A214.75,214.75,0,0,1,80.68,380.49,106.23,106.23,0,0,1,109,327.14Z"/><path class="e" d="M431.32,380.5a216.22,216.22,0,0,1-70.7,63.38L219.69,303a137.82,137.82,0,0,0,94.05-7.78H327A106.5,106.5,0,0,1,431.32,380.5Z"/><path class="b" d="M338.07,454.78a213.5,213.5,0,0,1-53.59,14.35l-157-157a105.42,105.42,0,0,1,51.22-16.75Z"/></svg>