<svg xmlns="http://www.w3.org/2000/svg" viewBox="0 0 512 512"><defs><style>.a{fill:#d19132;}.b{fill:#26522e;}.c{fill:#4d975a;}.d{fill:#fbb03b;}.e{fill:#333;}.f{fill:#6b6c6a;}</style></defs><title>Passgeiro-13</title><path class="a" d="M493.92,126.27c-14.93-24.9-37.67-39.18-62.38-39.18H256v26H436.25c13.54,0,26.62,8.84,35.86,24.27,9,14.92,13.89,34.64,13.89,55.53v102.4h26V196.8C512,170.75,505.58,145.69,493.92,126.27Z"/><path class="b" d="M486,295.29v23.83c0,20.9-4.93,40.61-13.87,55.5-9.26,15.45-22.34,24.29-35.88,24.29H75.75c-13.74,0-26.49-8.62-35.9-24.28C30.92,359.73,26,340,26,319.12V295.29H0V315.2c0,26.08,6.42,51.13,18.06,70.53,15,24.9,37.69,39.18,62.4,39.18H431.54c24.71,0,47.45-14.28,62.38-39.18C505.58,366.33,512,341.28,512,315.2V295.29Z"/><path class="c" d="M26,192.89c0-20.88,4.93-40.61,13.87-55.55,9.39-15.63,22.14-24.25,35.88-24.25H256v-26H80.46c-24.71,0-47.45,14.28-62.4,39.18C6.42,145.69,0,170.75,0,196.8v98.49H26Z"/><path class="d" d="M196.12,250.1l1.54-.15h0Z"/><path class="e" d="M94.77,285.78l95.38,95.63A132.47,132.47,0,0,1,73.77,332.82v-8.43a61.68,61.68,0,0,1,17.4-43A29.67,29.67,0,0,0,94.77,285.78Z"/><path class="e" d="M105.18,275.35l25.69,25.75-.17,0L48,218.26A131.46,131.46,0,0,1,58.71,189.4l73,73.22A61.65,61.65,0,0,0,102.7,272,14.18,14.18,0,0,0,105.18,275.35Z"/><path class="e" d="M159.58,290.51a131.05,131.05,0,0,1-28.71,10.59l-25.69-25.75A14.18,14.18,0,0,1,102.7,272a61.65,61.65,0,0,1,29.06-9.38Z"/><path class="f" d="M236.86,367.78A131.36,131.36,0,0,1,208,378.42L105.19,275.36a14.18,14.18,0,0,1-2.48-3.35,61.54,61.54,0,0,1,29.23-9.39Z"/><path class="e" d="M280,324.39v8.43a133.62,133.62,0,0,1-30,27.28l-92.37-92.58a80.1,80.1,0,0,0,52.8-5h7.69A61.9,61.9,0,0,1,280,324.39Z"/><circle class="e" cx="176.9" cy="188.85" r="58.93"/><path class="e" d="M399.52,163.74h0l-15.44,15.45c42.26,42.26,41.94,111.1-.72,153.76l15.31,15.31C449.85,297.07,450.24,214.46,399.52,163.74Z"/><path class="e" d="M337.73,225.53,322.29,241a21.75,21.75,0,0,1-.15,30.75L337.45,287A43.5,43.5,0,0,0,337.73,225.53Z"/><path class="e" d="M368.63,194.64l-15.45,15.45c25.36,25.35,25.17,66.66-.43,92.25h0l15.31,15.31C402.17,283.53,402.43,228.44,368.63,194.64Z"/></svg>