<svg xmlns="http://www.w3.org/2000/svg" viewBox="0 0 512 512"><defs><style>.a{fill:#26522e;}.b{fill:#4d975a;}.c{fill:#d19132;}</style></defs><title>Passgeiro-2</title><circle class="a" cx="242.26" cy="49.95" r="49.95" transform="translate(35.64 185.94) rotate(-45)"/><path class="b" d="M207.48,360.84,151.93,496.51a25,25,0,0,1-46.2-18.94l62-151.49Z"/><path class="a" d="M351.62,274.12A15.44,15.44,0,0,1,354,252.4l2.54-2a25,25,0,0,0-2.53-1.58l-35.55-19.42a9.12,9.12,0,0,1-3.54-4.47l-12.69-36.1c-6.77-19.36-22-54-48.71-68.91A65.93,65.93,0,0,0,232,112.79a61.63,61.63,0,0,0-32,4.7c-16.14,4.77-89.92,56.63-89.92,56.63C100.18,181.48,93,191.69,88.54,206L79.61,249.2a25,25,0,0,0,49.13,9.45l7.9-39.73a9.39,9.39,0,0,1,3.22-4.72l14.21-9.8s-9.08,37.89-9.15,38.29a60.06,60.06,0,0,0-1,8.61,60.68,60.68,0,0,0,20.66,48.63L236,362.37a33.43,33.43,0,0,1,11.36,22.38L255.69,489c.84,9.46,9.26,24.25,26.84,22.89a24.94,24.94,0,0,0,22.91-26.84l-9.06-113.65a60.57,60.57,0,0,0-20.5-40.69l-54.32-47.46,25.81-95.84c2.81,5.51,20.39,53.91,20.39,53.91,4.06,11.65,11.66,21.53,23.93,30.07l38.62,21.45a24.94,24.94,0,0,0,31.24-6.39Z"/><path class="c" d="M400.69,228l-40.27,32.38a5.17,5.17,0,0,0-.78,7.27l3.23,4,20.51,25.5a5.17,5.17,0,0,0,7.27.79l40.26-32.38a5.17,5.17,0,0,0,.79-7.27l-20.51-25.5-3.23-4A5.17,5.17,0,0,0,400.69,228Z"/></svg>