<svg xmlns="http://www.w3.org/2000/svg" viewBox="0 0 512 512"><defs><style>.a{fill:#d19132;}.b{fill:#26522e;}.c{fill:#4d975a;}</style></defs><title>Passgeiro-10</title><path class="a" d="M493.92,39.18C479,14.29,456.25,0,431.54,0H256V26H436.25c13.54,0,26.62,8.84,35.86,24.27,9,14.92,13.89,34.64,13.89,55.53V308.69h26v-199C512,83.66,505.58,58.61,493.92,39.18Z"/><path class="b" d="M486,308.69V406.2c0,20.91-4.93,40.62-13.87,55.51C462.87,477.15,449.79,486,436.25,486H75.75c-13.74,0-26.49-8.62-35.9-24.29C30.92,446.82,26,427.1,26,406.2V308.69H0v93.6c0,26.08,6.42,51.13,18.06,70.53C33,497.71,55.75,512,80.46,512H431.54c24.71,0,47.45-14.29,62.38-39.18,11.66-19.4,18.08-44.45,18.08-70.53v-93.6Z"/><path class="c" d="M26,105.8c0-20.88,4.93-40.61,13.87-55.55C49.26,34.63,62,26,75.75,26H256V0H80.46C55.75,0,33,14.29,18.06,39.18,6.42,58.61,0,83.66,0,109.71v199H26Z"/><path class="b" d="M177.51,281.92a107.1,107.1,0,0,0-52,17l-48.2-48.2A4.56,4.56,0,0,1,76,247.46v-56a4.6,4.6,0,0,1,7.85-3.25Z"/><circle class="b" cx="256" cy="153.14" r="102.86"/><path class="b" d="M254.44,461.72H114.57A38.58,38.58,0,0,1,76,423.14V389.72a107.58,107.58,0,0,1,30.86-75.56Z"/><path class="b" d="M436,389.72v33.42a38.59,38.59,0,0,1-38.58,38.58h-6.16l-172.1-172.1a139.8,139.8,0,0,0,95.42-7.9H328A108,108,0,0,1,436,389.72Z"/><path class="c" d="M357.32,461.72H288.39L125.55,298.91a107.1,107.1,0,0,1,52-17Z"/></svg>