<svg xmlns="http://www.w3.org/2000/svg" viewBox="0 0 512 512"><defs><style>.a{fill:#333;}.b{fill:#4d975a;}.c{fill:#d19132;}.d{fill:#26522e;}</style></defs><title>Ranking-38</title><path class="a" d="M349.9,22.76h-37V8.54A8.52,8.52,0,0,0,304.37,0H207.63a8.52,8.52,0,0,0-8.54,8.54V22.76h-37a8.52,8.52,0,0,0-8.54,8.54V51.22c0,23.65,27.71,46.85,61.14,50.65,11.17,18.53,24.23,26.18,24.23,26.18v25.61H221.85c-12.55,0-22.76,7.36-22.76,19.92v4.27a4.28,4.28,0,0,0,4.27,4.27H308.64a4.28,4.28,0,0,0,4.27-4.27v-4.27c0-12.56-10.21-19.92-22.76-19.92H273.07V128.05s13.06-7.65,24.23-26.18C330.84,98,358.44,74.8,358.44,51.22V31.3A8.52,8.52,0,0,0,349.9,22.76ZM176.32,51.22V45.53h22.84a128,128,0,0,0,4.55,30.66C186.82,70.36,176.32,58.44,176.32,51.22Zm159.36,0c0,7.19-10.46,19.14-27.39,25a128,128,0,0,0,4.55-30.66h22.84ZM290.4,52.89,276.31,66.62,279.65,86a4.26,4.26,0,0,1-6.19,4.48L256,81.35l-17.43,9.17A4.27,4.27,0,0,1,232.42,86l3.34-19.42L221.68,52.89a4.28,4.28,0,0,1,2.38-7.29l19.49-2.85,8.72-17.64a4.26,4.26,0,0,1,7.64,0l8.72,17.64,19.49,2.85a4.29,4.29,0,0,1,2.28,7.29Z"/><path class="b" d="M328.83,182.45H183.17a12.54,12.54,0,0,0-12.5,12.5V499.5a12.53,12.53,0,0,0,12.5,12.5H328.83a12.53,12.53,0,0,0,12.5-12.5V195A12.54,12.54,0,0,0,328.83,182.45Zm-44.39,204.6a5.68,5.68,0,0,1-5.68,5.69H233.24a5.68,5.68,0,0,1-5.68-5.69V375.67a5.68,5.68,0,0,1,5.68-5.69h11.38V324.47h-5.69a5.68,5.68,0,0,1-5.07-8.23l5.68-11.38a5.7,5.7,0,0,1,5.08-3.14h17.07a5.68,5.68,0,0,1,5.69,5.68V370h11.38a5.68,5.68,0,0,1,5.68,5.69Z"/><path class="c" d="M501.79,273.47H351.54a10.25,10.25,0,0,0-10.21,10.21V501.79A10.24,10.24,0,0,0,351.54,512H501.79A10.23,10.23,0,0,0,512,501.79V283.68A10.24,10.24,0,0,0,501.79,273.47ZM424.35,438.25c-11.82,0-20.83-3.38-26.31-6.71-4.14-3-4.51-7-1.87-11.34l4-6.62c2.74-4.71,6.47-5,11.09-2.22a29.47,29.47,0,0,0,11,2.22c7.23,0,10.21-2.49,10.21-5.85,0-4.72-4-6.46-11.33-6.46h-3.37c-4.23,0-6.57-1.51-8.71-5.6l-.74-1.38c-1.75-3.37-.86-7,2-10.58l4-5A110.11,110.11,0,0,1,422.1,370H405.86a5.69,5.69,0,0,1-5.69-5.69V352.92a5.69,5.69,0,0,1,5.69-5.69H446.4c5.33,0,8.06,2.84,8.06,8.07v2.35a14.16,14.16,0,0,1-3.6,10.09l-12.45,14.33c13.95,3.64,20.41,14.58,20.43,24.8C458.84,422.07,448.64,438.25,424.35,438.25Z"/><path class="d" d="M160.46,273.47H10.21A10.24,10.24,0,0,0,0,283.68V501.79A10.23,10.23,0,0,0,10.21,512H160.46a10.24,10.24,0,0,0,10.21-10.21V283.68A10.25,10.25,0,0,0,160.46,273.47Zm-50.12,142a5.69,5.69,0,0,1,5.69,5.69v11.38a5.69,5.69,0,0,1-5.69,5.69H62.05c-5,0-8.6-2.85-8.6-8.12v-2.84c0-33.62,36.27-40.11,36.25-49.15,0-5.11-4.23-6.22-6.6-6.22a9.58,9.58,0,0,0-6.73,2.73c-3.64,3.49-7.47,5-11.46,1.73l-6.1-4.89c-4.13-3.22-5.1-7-2-10.93,4.73-6.22,13.58-13.33,28.77-13.33,13.84,0,31.62,7.46,31.62,28.13,0,26.85-32,32.82-34.37,40.13Z"/></svg>