<svg xmlns="http://www.w3.org/2000/svg" viewBox="0 0 512 512"><defs><style>.a,.b{fill:#333;}.a{isolation:isolate;}.c{fill:#4d975a;}.d{fill:#d19132;}.e{fill:#26522e;}</style></defs><title>Ranking-39</title><path class="a" d="M222.3,33.7A33.7,33.7,0,1,1,256,67.41,33.7,33.7,0,0,1,222.3,33.7Z"/><path class="b" d="M230.72,77.91h6a46.37,46.37,0,0,0,38.6,0h6a25.28,25.28,0,0,1,25.28,25.28v71.62a12.64,12.64,0,0,1-12.64,12.64h-8.43v71.62a12.64,12.64,0,0,1-12.64,12.64h-33.7a12.64,12.64,0,0,1-12.64-12.64V187.45h-8.43a12.64,12.64,0,0,1-12.64-12.64V103.19A25.28,25.28,0,0,1,230.72,77.91Z"/><path class="a" d="M72.11,113.8a33.71,33.71,0,1,1,33.71,33.71A33.7,33.7,0,0,1,72.11,113.8Z"/><path class="b" d="M80.54,158h6a46.27,46.27,0,0,0,38.59,0h6a25.27,25.27,0,0,1,25.27,25.28V254.9a12.63,12.63,0,0,1-12.63,12.64h-8.43v71.63a12.64,12.64,0,0,1-12.64,12.64H89a12.64,12.64,0,0,1-12.64-12.64V267.54H67.9A12.63,12.63,0,0,1,55.26,254.9V183.28A25.28,25.28,0,0,1,80.54,158Z"/><path class="a" d="M372.48,113.8a33.71,33.71,0,1,1,33.7,33.71A33.7,33.7,0,0,1,372.48,113.8Z"/><path class="b" d="M380.9,158h6a46.27,46.27,0,0,0,38.59,0h6a25.28,25.28,0,0,1,25.28,25.28V254.9a12.63,12.63,0,0,1-12.64,12.64h-8.43v71.63A12.64,12.64,0,0,1,423,351.81h-33.7a12.64,12.64,0,0,1-12.64-12.64V267.54h-8.43a12.63,12.63,0,0,1-12.63-12.64V183.28A25.27,25.27,0,0,1,380.9,158Z"/><path class="c" d="M320.09,271.71H191.91a11,11,0,0,0-11,11V501a11,11,0,0,0,11,11H320.09a11,11,0,0,0,11-11V282.71A11,11,0,0,0,320.09,271.71ZM281,426.9a5,5,0,0,1-5,5H236a5,5,0,0,1-5-5v-10a5,5,0,0,1,5-5h10V371.83h-5a5,5,0,0,1-2.23-.53,5,5,0,0,1-2.24-6.72l5-10a5,5,0,0,1,4.47-2.76h15a5,5,0,0,1,5,5v55.07h10a5,5,0,0,1,5,5Z"/><path class="d" d="M472.29,351.81H340.07a9,9,0,0,0-9,9V503a9,9,0,0,0,9,9H472.29a9,9,0,0,0,9-9V360.79A9,9,0,0,0,472.29,351.81ZM404.15,472c-10.4,0-18.33-3-23.16-5.91-3.64-2.64-4-6.13-1.64-10l3.49-5.83c2.42-4.14,5.71-4.38,9.77-1.95a25.93,25.93,0,0,0,9.68,1.95c6.35,0,9-2.19,9-5.14,0-4.16-3.51-5.69-10-5.69h-3c-3.73,0-5.79-1.32-7.67-4.93l-.65-1.21c-1.54-3-.75-6.14,1.75-9.31l3.51-4.38a98.45,98.45,0,0,1,6.88-7.7H387.88a5,5,0,0,1-5-5v-10a5,5,0,0,1,5-5h35.66c4.7,0,7.1,2.51,7.1,7.11V401a12.44,12.44,0,0,1-3.17,8.88l-11,12.61c12.27,3.2,18,12.82,18,21.82C434.49,457.72,425.52,472,404.15,472Z"/><path class="e" d="M171.93,351.81H39.71a9,9,0,0,0-9,9V503a9,9,0,0,0,9,9H171.93a9,9,0,0,0,9-9V360.79A9,9,0,0,0,171.93,351.81Zm-44.1,100.12a5,5,0,0,1,5,5v10a5,5,0,0,1-5,5H85.33c-4.39,0-7.56-2.5-7.56-7.14v-2.5c0-29.59,31.91-35.29,31.89-43.25,0-4.5-3.72-5.48-5.81-5.48a8.44,8.44,0,0,0-5.92,2.4c-3.2,3.08-6.57,4.38-10.08,1.53l-5.37-4.3c-3.63-2.84-4.49-6.12-1.76-9.62,4.17-5.48,12-11.74,25.32-11.74,12.19,0,27.83,6.57,27.83,24.76,0,23.63-28.19,28.88-30.25,35.32Z"/></svg>