<svg xmlns="http://www.w3.org/2000/svg" viewBox="0 0 512 512"><defs><style>.a{fill:#26522e;}.b{fill:#d19132;}.c{fill:#4d975a;}.d{fill:#e6e6e6;}</style></defs><title>Ranking-37</title><path class="a" d="M59.76,512.58c-14.13,0-27.72-3.38-38.25-9.51C7.84,495.1,0,482.89,0,469.56V307.91H24.58V469.56C24.58,479.38,41,488,59.76,488H452.24c18.74,0,35.18-8.62,35.18-18.44V307.91H512V469.56c0,13.33-7.84,25.54-21.51,33.51-10.53,6.13-24.12,9.51-38.25,9.51Z"/><path class="b" d="M487.42,307.91V42.44C487.42,32.62,471,24,452.24,24H256V-.58H452.24c14.13,0,27.72,3.38,38.25,9.51C504.16,16.9,512,29.11,512,42.44V307.91Z"/><path class="c" d="M0,307.91V42.44C0,29.11,7.84,16.9,21.51,8.93,32,2.8,45.63-.58,59.76-.58H256V24H59.76C41,24,24.58,32.62,24.58,42.44V307.91Z"/><path class="a" d="M110.87,401.2H93.44A34.86,34.86,0,0,0,58.59,436v8.7a8.7,8.7,0,0,0,8.71,8.7H137a8.7,8.7,0,0,0,8.71-8.7V436A34.86,34.86,0,0,0,110.87,401.2Z"/><ellipse class="a" cx="102.15" cy="366.93" rx="26.14" ry="26.11"/><path class="d" d="M437.75,353.6H196.32c-8.68,0-15.72,5.8-15.75,13h0v61c0,7.19,7,13,15.67,13.05H437.67c8.67,0,15.72-5.8,15.74-13h0v-61c0-7.19-7-13-15.66-13.06Z"/><path class="c" d="M424.5,417.6h-215c-2.54,0-4.59-1.7-4.59-3.81V380.44c0-2.1,2-3.8,4.59-3.8h215c2.54,0,4.59,1.7,4.59,3.8v33.35C429.09,415.9,427,417.6,424.5,417.6Z"/><path class="a" d="M209.49,417.6H300c2.53,0,4.59-1.7,4.59-3.81V380.44c0-2.1-2.06-3.8-4.59-3.8H209.49c-2.54,0-4.59,1.7-4.59,3.8v33.35C204.9,415.9,207,417.6,209.49,417.6Z"/><path class="c" d="M110.87,260.08H93.44a34.86,34.86,0,0,0-34.85,34.81v8.7a8.71,8.71,0,0,0,8.71,8.71H137a8.71,8.71,0,0,0,8.71-8.71v-8.7A34.86,34.86,0,0,0,110.87,260.08Z"/><ellipse class="c" cx="102.15" cy="225.81" rx="26.14" ry="26.11"/><path class="d" d="M437.75,212.49H196.32c-8.68,0-15.72,5.79-15.75,13h0v61c0,7.19,7,13,15.67,13.05H437.67c8.67,0,15.72-5.79,15.74-13h0v-61c0-7.19-7-13-15.66-13Z"/><path class="c" d="M424.5,276.48h-215c-2.54,0-4.59-1.7-4.59-3.81V239.33c0-2.11,2-3.81,4.59-3.81h215c2.54,0,4.59,1.7,4.59,3.81v33.34C429.09,274.78,427,276.48,424.5,276.48Z"/><path class="a" d="M211.35,276.48H338.51c3.57,0,6.46-1.7,6.46-3.81V239.33c0-2.11-2.89-3.81-6.46-3.81H211.35c-3.56,0-6.45,1.7-6.45,3.81v33.34C204.9,274.78,207.79,276.48,211.35,276.48Z"/><path class="b" d="M110.87,119H93.44a34.86,34.86,0,0,0-34.85,34.81v8.7a8.71,8.71,0,0,0,8.71,8.71H137a8.71,8.71,0,0,0,8.71-8.71v-8.7A34.86,34.86,0,0,0,110.87,119Z"/><ellipse class="b" cx="102.15" cy="84.69" rx="26.14" ry="26.11"/><path class="d" d="M437.75,71.37H196.32c-8.68,0-15.72,5.8-15.75,13h0v61c0,7.19,7,13,15.67,13.06H437.67c8.67,0,15.72-5.8,15.74-13h0v-61c0-7.19-7-13-15.66-13Z"/><path class="c" d="M424.5,135.36h-215c-2.54,0-4.59-1.7-4.59-3.8V98.21c0-2.11,2-3.81,4.59-3.81h215c2.54,0,4.59,1.7,4.59,3.81v33.35C429.09,133.66,427,135.36,424.5,135.36Z"/><path class="a" d="M213.2,135.36H376.8c4.59,0,8.3-1.7,8.3-3.8V98.21c0-2.11-3.71-3.81-8.3-3.81H213.2c-4.59,0-8.3,1.7-8.3,3.81v33.35C204.9,133.66,208.61,135.36,213.2,135.36Z"/></svg>