<svg xmlns="http://www.w3.org/2000/svg" viewBox="0 0 512 512"><defs><style>.a{fill:#e6e6e6;}.b{fill:#26522e;}.c{fill:#4d975a;}.d{fill:#d19132;}</style></defs><title>Ranking-40</title><path class="a" d="M466.81,256a210.81,210.81,0,1,1-421.62,0C45.19,139.57,139.57,45.19,256,45.19S466.81,139.57,466.81,256Z"/><path class="b" d="M470.31,379.73h0l-7.11-4.1h0l-3.35-1.94a235.39,235.39,0,0,1-407.7,0l-3.35,1.94h0l-7.11,4.1h0L34.3,384a256,256,0,0,0,443.4,0Z"/><path class="c" d="M0,256A256,256,0,0,0,34.3,384l7.36-4.25h0l3.46-2h0l7-4.06A235.38,235.38,0,0,1,20.62,256C20.62,126.87,126.87,20.62,256,20.62V0C115.56,0,0,115.56,0,256Z"/><path class="d" d="M512,256C512,115.56,396.43,0,256,0V20.62c129.13,0,235.38,106.25,235.38,235.38a235.38,235.38,0,0,1-31.53,117.69l7,4.06h0l3.46,2h0L477.7,384A256,256,0,0,0,512,256Z"/><path class="b" d="M404,351.81a88.82,88.82,0,0,0-88.77-86.57h-11a115,115,0,0,1-96.34,0h-11A88.82,88.82,0,0,0,108,351.81v0c0,.73,0,1.47,0,2.21v27.48c0,.37,0,.74,0,1.11v23.53a210.83,210.83,0,0,0,296,0V351.81Z"/><circle class="b" cx="256" cy="159.53" r="84.57"/><path class="a" d="M324.94,447a15.71,15.71,0,0,1-14.21-9l-6.56-14-6.57,14a15.71,15.71,0,0,1-14.21,9,15.21,15.21,0,0,1-4-.53l-11.73-3.21a13.79,13.79,0,0,1-8.89-19.38l12.66-27a29.8,29.8,0,0,1-12.33-19.34c-.12-.69-.21-1.38-.28-2.07-.45-.55-.88-1.11-1.28-1.69a29.69,29.69,0,0,1,0-34.19c.41-.58.84-1.14,1.29-1.69.07-.69.16-1.38.28-2.06a29.69,29.69,0,0,1,26.27-24.49c.55-.45,1.11-.87,1.68-1.27a29.64,29.64,0,0,1,34.2,0c.57.4,1.13.83,1.67,1.27a29.7,29.7,0,0,1,26.27,24.47c.12.69.21,1.39.28,2.08.44.54.86,1.09,1.27,1.66a29.7,29.7,0,0,1,0,34.21c-.41.59-.84,1.15-1.29,1.7-.07.69-.16,1.38-.28,2.06a29.79,29.79,0,0,1-12.33,19.35l12.67,27a13.8,13.8,0,0,1-8.9,19.37l-11.76,3.22a15.23,15.23,0,0,1-3.95.52Z"/><path class="d" d="M338,433.66l-11.75,3.21a5.78,5.78,0,0,1-6.48-3l-15.61-33.29-15.62,33.29a5.78,5.78,0,0,1-6.48,3l-11.75-3.21a3.81,3.81,0,0,1-2.48-5.49l17-36.28a19.5,19.5,0,0,0,3.51.31l1.11,0a19.67,19.67,0,0,0,29.37,0l1.12,0a19.31,19.31,0,0,0,3.5-.31l17,36.28A3.82,3.82,0,0,1,338,433.66Z"/><path class="c" d="M346.19,356.73a19.61,19.61,0,0,1-3.58,11.33,20.41,20.41,0,0,1-3,3.36,20.29,20.29,0,0,1-.26,4.46,19.69,19.69,0,0,1-15.89,16,19.31,19.31,0,0,1-3.5.31l-1.12,0a19.7,19.7,0,0,1-29.37,0l-1.11,0A19.68,19.68,0,0,1,269,375.88a20.29,20.29,0,0,1-.26-4.46,19.91,19.91,0,0,1-3-3.36,19.7,19.7,0,0,1,3-26,20.35,20.35,0,0,1,.26-4.47,19.7,19.7,0,0,1,19.39-16.33c.37,0,.74,0,1.11,0a19.66,19.66,0,0,1,26-3,19.11,19.11,0,0,1,3.35,3c.38,0,.75,0,1.12,0a19.7,19.7,0,0,1,19.39,16.33,20.35,20.35,0,0,1,.26,4.47,19.94,19.94,0,0,1,3,3.35A19.62,19.62,0,0,1,346.19,356.73Z"/><path class="b" d="M338.21,356.72a11.69,11.69,0,0,0-7.59-11,11.71,11.71,0,0,0-15.5-15.5,11.7,11.7,0,0,0-21.91,0,11.71,11.71,0,0,0-15.5,15.5,11.7,11.7,0,0,0,0,21.91,11.71,11.71,0,0,0,15.5,15.5,11.7,11.7,0,0,0,21.91,0,11.71,11.71,0,0,0,15.5-15.5A11.69,11.69,0,0,0,338.21,356.72Z"/></svg>