<svg xmlns="http://www.w3.org/2000/svg" viewBox="0 0 512 512"><defs><style>.a{fill:#26522e;}.b{fill:#d19132;}.c{fill:#4d975a;}.d{fill:#333;}.e{fill:#6b6c6a;}</style></defs><title>Ranking-42</title><path class="a" d="M59.76,512.58c-14.13,0-27.72-3.38-38.25-9.51C7.84,495.1,0,482.89,0,469.56V307.91H24.58V469.56C24.58,479.38,41,488,59.76,488H452.24c18.74,0,35.18-8.62,35.18-18.44V307.91H512V469.56c0,13.33-7.84,25.54-21.51,33.51-10.53,6.13-24.12,9.51-38.25,9.51Z"/><path class="b" d="M487.42,307.91V42.44C487.42,32.62,471,24,452.24,24H256V-.58H452.24c14.13,0,27.72,3.38,38.25,9.51C504.16,16.9,512,29.11,512,42.44V307.91Z"/><path class="c" d="M0,307.91V42.44C0,29.11,7.84,16.9,21.51,8.93,32,2.8,45.63-.58,59.76-.58H256V24H59.76C41,24,24.58,32.62,24.58,42.44V307.91Z"/><path class="d" d="M273.34,125H238.66c-19.15,0-34.67,15.2-34.67,33.95V169.8a17.16,17.16,0,0,0,17.34,17h69.34a17.16,17.16,0,0,0,17.34-17V158.92C308,140.17,292.49,125,273.34,125Z"/><circle class="d" cx="256" cy="81.91" r="33.95"/><path class="c" d="M315.19,199.31H196.81a10.19,10.19,0,0,0-10.15,10.16V453.88A10.18,10.18,0,0,0,196.81,464H315.19a10.18,10.18,0,0,0,10.15-10.15V209.47A10.19,10.19,0,0,0,315.19,199.31ZM279.11,401a4.62,4.62,0,0,1-4.62,4.62h-37a4.62,4.62,0,0,1-4.62-4.62v-9.25a4.62,4.62,0,0,1,4.62-4.62h9.24v-37h-4.62a4.76,4.76,0,0,1-2.06-.49,4.64,4.64,0,0,1-2.07-6.21l4.63-9.24a4.63,4.63,0,0,1,4.12-2.56h13.87a4.63,4.63,0,0,1,4.63,4.63v50.85h9.24a4.62,4.62,0,0,1,4.62,4.62Z"/><path class="b" d="M455.74,273.28H333.64a8.32,8.32,0,0,0-8.3,8.29V455.74a8.32,8.32,0,0,0,8.3,8.29h122.1a8.31,8.31,0,0,0,8.29-8.29V281.57A8.31,8.31,0,0,0,455.74,273.28ZM392.81,405.64c-9.61,0-16.93-2.74-21.38-5.45-3.37-2.44-3.67-5.67-1.52-9.22l3.23-5.38c2.23-3.82,5.26-4,9-1.8a23.9,23.9,0,0,0,8.94,1.8c5.87,0,8.3-2,8.3-4.75,0-3.84-3.24-5.25-9.21-5.25h-2.73c-3.45,0-5.35-1.22-7.08-4.55l-.61-1.12c-1.42-2.74-.69-5.67,1.62-8.6l3.24-4a89.37,89.37,0,0,1,6.36-7.11h-13.2a4.62,4.62,0,0,1-4.62-4.63V336.3a4.62,4.62,0,0,1,4.62-4.63h32.94c4.34,0,6.56,2.31,6.56,6.56v1.91a11.52,11.52,0,0,1-2.93,8.2L404.23,360c11.34,3,16.59,11.85,16.61,20.16C420.84,392.49,412.55,405.64,392.81,405.64Z"/><path class="a" d="M178.36,273.28H56.26A8.31,8.31,0,0,0,48,281.57V455.74A8.31,8.31,0,0,0,56.26,464h122.1a8.32,8.32,0,0,0,8.3-8.29V281.57A8.32,8.32,0,0,0,178.36,273.28ZM137.63,387.15a4.62,4.62,0,0,1,4.63,4.62V401a4.62,4.62,0,0,1-4.63,4.62H98.39c-4,0-7-2.31-7-6.59v-2.31c0-27.33,29.48-32.6,29.46-39.95,0-4.15-3.44-5.05-5.36-5.05A7.76,7.76,0,0,0,110,354c-3,2.83-6.07,4-9.32,1.41l-4.95-4c-3.36-2.62-4.15-5.65-1.62-8.88,3.85-5.06,11-10.84,23.38-10.84,11.25,0,25.7,6.07,25.7,22.86,0,21.82-26,26.67-27.94,32.62Z"/><path class="e" d="M412,198.94H377.35c-19.15,0-34.67,15.2-34.67,33.94v10.88a17.16,17.16,0,0,0,17.34,17h69.34a17.16,17.16,0,0,0,17.34-17V232.88C446.7,214.14,431.17,198.94,412,198.94Z"/><circle class="e" cx="394.69" cy="155.88" r="33.95"/><path class="e" d="M134.65,198.94H100c-19.14,0-34.67,15.2-34.67,33.94v10.88a17.16,17.16,0,0,0,17.34,17H152a17.16,17.16,0,0,0,17.34-17V232.88C169.32,214.14,153.8,198.94,134.65,198.94Z"/><circle class="e" cx="117.31" cy="155.88" r="33.95"/></svg>