<svg xmlns="http://www.w3.org/2000/svg" viewBox="0 0 512 512"><defs><style>.a{fill:#333;}.b{fill:#4d975a;}.c{fill:#d19132;}.d{fill:#26522e;}.e{fill:#6b6c6a;}</style></defs><title>Ranking-43</title><path class="a" d="M277.33,94.76H234.67c-23.57,0-42.67,18.7-42.67,41.77v13.39a21.11,21.11,0,0,0,21.33,20.89h85.34A21.11,21.11,0,0,0,320,149.92V136.53C320,113.46,300.9,94.76,277.33,94.76Z"/><circle class="a" cx="256" cy="41.77" r="41.77"/><path class="b" d="M328.83,186.24H183.17a12.54,12.54,0,0,0-12.5,12.5V499.5a12.53,12.53,0,0,0,12.5,12.5H328.83a12.53,12.53,0,0,0,12.5-12.5V198.74A12.54,12.54,0,0,0,328.83,186.24ZM284.44,434.45a5.68,5.68,0,0,1-5.68,5.69H233.24a5.68,5.68,0,0,1-5.68-5.69V423.08a5.68,5.68,0,0,1,5.68-5.69h11.38V371.88h-5.69a5.7,5.7,0,0,1-5.07-8.24l5.68-11.38a5.7,5.7,0,0,1,5.08-3.14h17.07a5.69,5.69,0,0,1,5.69,5.69v62.58h11.38a5.68,5.68,0,0,1,5.68,5.69Z"/><path class="c" d="M501.79,277.26H351.54a10.25,10.25,0,0,0-10.21,10.21V501.79A10.24,10.24,0,0,0,351.54,512H501.79A10.23,10.23,0,0,0,512,501.79V287.47A10.24,10.24,0,0,0,501.79,277.26ZM424.35,440.14c-11.82,0-20.83-3.37-26.31-6.71-4.14-3-4.51-7-1.87-11.34l4-6.62c2.74-4.7,6.47-5,11.09-2.21a29.66,29.66,0,0,0,11,2.21c7.23,0,10.21-2.48,10.21-5.84,0-4.73-4-6.46-11.33-6.46h-3.37c-4.23,0-6.57-1.51-8.71-5.61l-.74-1.37c-1.75-3.38-.86-7,2-10.58l4-5a111.75,111.75,0,0,1,7.82-8.75H405.86a5.69,5.69,0,0,1-5.69-5.69V354.81a5.69,5.69,0,0,1,5.69-5.69H446.4c5.33,0,8.06,2.85,8.06,8.07v2.36a14.19,14.19,0,0,1-3.6,10.09L438.41,384c13.95,3.64,20.41,14.57,20.43,24.8C458.84,424,448.64,440.14,424.35,440.14Z"/><path class="d" d="M160.46,277.26H10.21A10.24,10.24,0,0,0,0,287.47V501.79A10.23,10.23,0,0,0,10.21,512H160.46a10.24,10.24,0,0,0,10.21-10.21V287.47A10.25,10.25,0,0,0,160.46,277.26ZM110.34,417.39a5.68,5.68,0,0,1,5.69,5.69v11.37a5.68,5.68,0,0,1-5.69,5.69H62.05c-5,0-8.6-2.84-8.6-8.11v-2.85c0-33.62,36.27-40.1,36.25-49.15,0-5.11-4.23-6.22-6.6-6.22a9.58,9.58,0,0,0-6.73,2.73c-3.64,3.49-7.47,5-11.46,1.74l-6.1-4.9c-4.13-3.22-5.1-6.95-2-10.93,4.73-6.22,13.58-13.33,28.77-13.33,13.84,0,31.62,7.47,31.62,28.13,0,26.85-32,32.82-34.37,40.14Z"/><path class="e" d="M448,185.78H405.33c-23.56,0-42.66,18.7-42.66,41.77v13.39A21.11,21.11,0,0,0,384,261.83h85.33a21.11,21.11,0,0,0,21.34-20.89V227.55C490.67,204.48,471.56,185.78,448,185.78Z"/><circle class="e" cx="426.67" cy="132.8" r="41.77"/><path class="e" d="M106.67,185.78H64c-23.56,0-42.67,18.7-42.67,41.77v13.39a21.11,21.11,0,0,0,21.34,20.89H128a21.11,21.11,0,0,0,21.33-20.89V227.55C149.33,204.48,130.23,185.78,106.67,185.78Z"/><circle class="e" cx="85.33" cy="132.8" r="41.77"/></svg>