<svg xmlns="http://www.w3.org/2000/svg" viewBox="0 0 512 512"><defs><style>.a{fill:#26522e;}.b{fill:#d19132;}.c{fill:#4d975a;}.d{fill:#333;}</style></defs><title>Ranking-41</title><path class="a" d="M59.76,512.58c-14.13,0-27.72-3.38-38.25-9.51C7.84,495.1,0,482.89,0,469.56V307.91H24.58V469.56C24.58,479.38,41,488,59.76,488H452.24c18.74,0,35.18-8.62,35.18-18.44V307.91H512V469.56c0,13.33-7.84,25.54-21.51,33.51-10.53,6.13-24.12,9.51-38.25,9.51Z"/><path class="b" d="M487.42,307.91V42.44C487.42,32.62,471,24,452.24,24H256V-.58H452.24c14.13,0,27.72,3.38,38.25,9.51C504.16,16.9,512,29.11,512,42.44V307.91Z"/><path class="c" d="M0,307.91V42.44C0,29.11,7.84,16.9,21.51,8.93,32,2.8,45.63-.58,59.76-.58H256V24H59.76C41,24,24.58,32.62,24.58,42.44V307.91Z"/><path class="d" d="M77.08,107.53A49.49,49.49,0,1,1,126.57,157,49.5,49.5,0,0,1,77.08,107.53Z"/><path class="d" d="M89.45,169.39h8.79a68,68,0,0,0,56.66,0h8.79a37.12,37.12,0,0,1,37.12,37.12V311.68a18.56,18.56,0,0,1-18.56,18.56H169.87V435.41A18.56,18.56,0,0,1,151.31,454H101.82a18.56,18.56,0,0,1-18.56-18.56V330.24H70.89a18.56,18.56,0,0,1-18.56-18.56V206.51A37.12,37.12,0,0,1,89.45,169.39Z"/><path class="a" d="M454.34,273.09H236.42c-6.2,0-11.22,4.51-11.24,10.08V317c0,5.58,5,10.12,11.21,10.13H454.31c6.2,0,11.23-4.51,11.24-10.08V283.22c0-5.58-5-10.12-11.21-10.13Z"/><path class="c" d="M454.34,184.88H236.42c-6.2,0-11.22,4.51-11.24,10.08v33.82c0,5.58,5,10.12,11.21,10.13H454.31c6.2,0,11.23-4.51,11.24-10.08V195c0-5.58-5-10.12-11.21-10.13Z"/><path class="d" d="M454.34,361.3H236.42c-6.2,0-11.22,4.51-11.24,10.08v33.83c0,5.58,5,10.11,11.21,10.13H454.31c6.2,0,11.23-4.51,11.24-10.08V371.44c0-5.59-5-10.12-11.21-10.14Z"/><path class="b" d="M454.34,96.66H236.42c-6.2,0-11.22,4.51-11.24,10.08v33.82c0,5.59,5,10.12,11.21,10.14H454.31c6.2,0,11.23-4.51,11.24-10.08V106.79c0-5.58-5-10.11-11.21-10.13Z"/></svg>