<svg xmlns="http://www.w3.org/2000/svg" viewBox="0 0 512 512"><defs><style>.a{fill:#26522e;}.b{fill:#4d975a;}.c{fill:#d19132;}.c,.d{fill-rule:evenodd;}.d{fill:#333;}</style></defs><title>Silometria-15</title><rect class="a" x="108.51" y="278.12" width="294.97" height="110.91" rx="8.96"/><rect class="b" x="108.51" y="140.82" width="294.97" height="111.24" rx="8.96"/><path class="c" d="M113.89,61.31,252.58.75a8.94,8.94,0,0,1,7.17,0L398.12,61.31a8.94,8.94,0,0,1,5.37,8.2v36.3a9,9,0,0,1-9,9H117.47a9,9,0,0,1-9-9V69.52A9,9,0,0,1,113.89,61.31Z"/><path class="d" d="M113.76,449.2l93.73,42.67a9,9,0,0,1,5.25,8.15v3a9,9,0,0,0,9,9h68.6a9,9,0,0,0,9-9v-3a9,9,0,0,1,5.25-8.15l93.73-42.67a9,9,0,0,0,5.25-8.15V423.7a9,9,0,0,0-9-8.95H117.47a9,9,0,0,0-9,8.95v17.35A9,9,0,0,0,113.76,449.2Z"/></svg>