<svg xmlns="http://www.w3.org/2000/svg" viewBox="0 0 512 512"><defs><style>.a{fill:#333;}.b,.d{fill:#26522e;}.c,.e{fill:#4d975a;}.c,.d{fill-rule:evenodd;}.f{fill:#d19132;}</style></defs><title>Silometria-16</title><path class="a" d="M469.33,1.54H42.67A42.68,42.68,0,0,0,0,44.2V355.56a42.68,42.68,0,0,0,42.67,42.66H213.33L192,483.56H128A14.22,14.22,0,0,0,128,512H384a14.22,14.22,0,1,0,0-28.44H320l-21.33-85.34H469.33A42.68,42.68,0,0,0,512,355.56V44.2A42.68,42.68,0,0,0,469.33,1.54Zm-248,482,14.23-56.89h40.88l14.23,56.89Zm262.23-128a14.27,14.27,0,0,1-14.23,14.22H42.67a14.27,14.27,0,0,1-14.23-14.22V44.2A14.27,14.27,0,0,1,42.67,30H469.33A14.27,14.27,0,0,1,483.56,44.2Z"/><rect class="b" x="183.99" y="209.91" width="144.03" height="54.15" rx="4.37"/><rect class="b" x="183.99" y="142.87" width="144.03" height="54.32" rx="4.37"/><path class="c" d="M186.61,104.05l67.72-29.57a4.35,4.35,0,0,1,3.5,0l67.56,29.57a4.34,4.34,0,0,1,2.62,4v17.73a4.37,4.37,0,0,1-4.37,4.37H188.36a4.37,4.37,0,0,1-4.37-4.37V108.05A4.37,4.37,0,0,1,186.61,104.05Z"/><path class="d" d="M186.55,293.45l45.77,20.83a4.38,4.38,0,0,1,2.56,4v1.48a4.37,4.37,0,0,0,4.37,4.37h33.5a4.37,4.37,0,0,0,4.37-4.37v-1.48a4.38,4.38,0,0,1,2.56-4l45.77-20.83a4.38,4.38,0,0,0,2.56-4V281a4.37,4.37,0,0,0-4.37-4.38H188.36A4.37,4.37,0,0,0,184,281v8.47A4.38,4.38,0,0,0,186.55,293.45Z"/><path class="e" d="M147.37,135.45H109.19l25.43,25.43a2.58,2.58,0,0,0,3.57.11A38.56,38.56,0,0,0,150,138.32a2.58,2.58,0,0,0-2.59-2.87Z"/><path class="f" d="M144.83,125a38.71,38.71,0,0,0-35.91-35.9,2.58,2.58,0,0,0-2.7,2.6v36h36a2.6,2.6,0,0,0,2.61-2.71Z"/><path class="a" d="M98.49,135.45V97.27a2.57,2.57,0,0,0-2.87-2.58,38.59,38.59,0,0,0-33.15,39.53c.7,20.62,18.46,37.53,39.08,37.27a38.32,38.32,0,0,0,21.77-7.08,2.57,2.57,0,0,0,.25-3.88Z"/><path class="a" d="M139,207H120.8a14.59,14.59,0,1,0-29.17,0H73.39a10.94,10.94,0,0,0-10.94,10.94v80.24a10.94,10.94,0,0,0,10.94,10.94H139A10.94,10.94,0,0,0,150,298.17V217.93A10.94,10.94,0,0,0,139,207Zm-32.83,5.47a5.47,5.47,0,1,1,5.48-5.47A5.46,5.46,0,0,1,106.21,212.46Z"/><path class="e" d="M77.4,240.13l2.9-2.87a1.22,1.22,0,0,1,1.73,0l4.7,4.74,10.85-10.76a1.24,1.24,0,0,1,1.73,0l2.87,2.9a1.22,1.22,0,0,1,0,1.73l-14.63,14.5a1.23,1.23,0,0,1-1.74,0l-8.41-8.5A1.23,1.23,0,0,1,77.4,240.13Z"/><circle class="e" cx="84.33" cy="276.29" r="5.47"/><rect class="e" x="98.92" y="272.64" width="36.47" height="7.29" rx="1.82"/><path class="f" d="M135.39,248.93a2,2,0,0,1-2.19,1.83H97.58l7.36-7.3H133.2a2,2,0,0,1,2.19,1.83v3.64Z"/><path class="a" d="M449.15,150.74a2.13,2.13,0,0,1,2.13,2.13V160a2.14,2.14,0,0,1-2.13,2.13H362.42a2.14,2.14,0,0,1-2.13-2.13V96a2.14,2.14,0,0,1,2.13-2.14h7.11A2.14,2.14,0,0,1,371.66,96v54.74Z"/><path class="e" d="M426.52,110.84l-15,10-15.16-20.21a2.13,2.13,0,0,0-3.53.18l-15.43,25.72v18.48h68.24l-16-33.38A2.14,2.14,0,0,0,426.52,110.84Z"/><path class="a" d="M449.62,217.42l-23.2-23.22a5.65,5.65,0,0,0-4-1.66H421v30.33h30.33v-1.44A5.66,5.66,0,0,0,449.62,217.42Z"/><path class="a" d="M413.37,224.77V192.54H366a5.67,5.67,0,0,0-5.69,5.69v110a5.67,5.67,0,0,0,5.69,5.68h79.61a5.67,5.67,0,0,0,5.69-5.68V230.45H419.05A5.7,5.7,0,0,1,413.37,224.77Z"/><path class="e" d="M413.37,295.67a3.27,3.27,0,0,1-3,3h-9.09a3.27,3.27,0,0,1-3-3v-47a3.27,3.27,0,0,1,3-3h9.09a3.27,3.27,0,0,1,3,3v47Z"/><path class="e" d="M413.37,295.67a3.27,3.27,0,0,1-3,3h-9.09a3.27,3.27,0,0,1-3-3v-47a3.27,3.27,0,0,1,3-3h9.09a3.27,3.27,0,0,1,3,3v47Z"/><path class="e" d="M390.62,297.31c0,.7-1.52,1.39-3,1.39h-9.1c-1.52,0-3-.69-3-1.39V275.83c0-.69,1.52-1.38,3-1.38h9.1c1.51,0,3,.69,3,1.38v21.48Z"/><path class="f" d="M421,263.82a3.26,3.26,0,0,1,3-3h9.1a3.26,3.26,0,0,1,3,3v31.85a3.27,3.27,0,0,1-3,3H424a3.27,3.27,0,0,1-3-3V263.82Z"/></svg>