<svg xmlns="http://www.w3.org/2000/svg" viewBox="0 0 512 512"><defs><style>.a{fill:#26522e;}.b{fill:#4d975a;}.c{fill:#d19132;}.c,.d{fill-rule:evenodd;}.d{fill:#333;}</style></defs><title>Silometria-21</title><rect class="a" x="104.72" y="238.14" width="302.57" height="94.96" rx="7.67"/><rect class="b" x="104.72" y="120.58" width="302.57" height="95.25" rx="7.67"/><path class="c" d="M109.32,52.5,253.07.64a7.71,7.71,0,0,1,6.14,0L402.69,52.49a7.68,7.68,0,0,1,4.59,7V90.6a7.67,7.67,0,0,1-7.67,7.67H112.39a7.67,7.67,0,0,1-7.67-7.67V59.52A7.65,7.65,0,0,1,109.32,52.5Z"/><path class="d" d="M109.21,384.63l105.26,36.53a7.69,7.69,0,0,1,4.49,7v2.59a7.66,7.66,0,0,0,7.67,7.67h58.74a7.66,7.66,0,0,0,7.67-7.67v-2.59a7.69,7.69,0,0,1,4.49-7l105.26-36.53a7.65,7.65,0,0,0,4.49-7V362.8a7.66,7.66,0,0,0-7.67-7.67H112.39a7.66,7.66,0,0,0-7.67,7.67v14.85A7.65,7.65,0,0,0,109.21,384.63Z"/><polygon class="d" points="380.51 485.4 380.35 418.27 407.29 406.01 407.29 512 104.72 512 104.72 406.01 131.31 418.11 131.48 485.4 380.51 485.4"/></svg>