<svg xmlns="http://www.w3.org/2000/svg" viewBox="0 0 512 512"><defs><style>.a{fill:#26522e;}.b{fill:#4d975a;}.c{fill:#d19132;}.c,.d{fill-rule:evenodd;}.d{fill:#333;}</style></defs><title>Silometria-17</title><rect class="a" x="129.71" y="238.14" width="252.57" height="94.96" rx="7.67"/><rect class="b" x="129.71" y="120.58" width="252.57" height="95.25" rx="7.67"/><path class="c" d="M134.31,52.5,253.07.64a7.71,7.71,0,0,1,6.14,0L377.69,52.49a7.68,7.68,0,0,1,4.59,7V90.6a7.67,7.67,0,0,1-7.66,7.67H137.38a7.68,7.68,0,0,1-7.67-7.67V59.52A7.66,7.66,0,0,1,134.31,52.5Z"/><path class="d" d="M134.2,384.63l80.26,36.53a7.68,7.68,0,0,1,4.5,7v2.59a7.66,7.66,0,0,0,7.66,7.67h58.75a7.66,7.66,0,0,0,7.67-7.67v-2.59a7.69,7.69,0,0,1,4.49-7l80.26-36.53a7.65,7.65,0,0,0,4.49-7V362.8a7.66,7.66,0,0,0-7.66-7.67H137.38a7.67,7.67,0,0,0-7.67,7.67v14.85A7.67,7.67,0,0,0,134.2,384.63Z"/><polygon class="d" points="355.51 485.4 355.35 418.27 382.29 406.01 382.29 512 129.71 512 129.71 406.01 156.31 418.11 156.48 485.4 355.51 485.4"/></svg>