<svg xmlns="http://www.w3.org/2000/svg" viewBox="0 0 512 512"><defs><style>.a{fill:#26522e;}.b{fill:#4d975a;}.c,.e{fill:#d19132;}.c,.d{fill-rule:evenodd;}.d{fill:#333;}</style></defs><title>Silometria-19</title><rect class="a" x="140.78" y="273.28" width="230.45" height="86.65" rx="7"/><rect class="b" x="140.78" y="166.02" width="230.45" height="86.91" rx="7"/><path class="c" d="M145,103.9,253.33,56.58a7,7,0,0,1,5.6,0L367,103.9a7,7,0,0,1,4.19,6.41v28.35a7,7,0,0,1-7,7H147.77a7,7,0,0,1-7-7V110.31A7,7,0,0,1,145,103.9Z"/><path class="d" d="M144.87,406.94l73.23,33.33a7,7,0,0,1,4.1,6.37V449a7,7,0,0,0,7,7h53.6a7,7,0,0,0,7-7v-2.36a7,7,0,0,1,4.1-6.37l73.23-33.33a7,7,0,0,0,4.09-6.37V387a7,7,0,0,0-7-7H147.77a7,7,0,0,0-7,7v13.55A7,7,0,0,0,144.87,406.94Z"/><path class="a" d="M470.31,379.73h0l-7.11-4.1h0l-3.35-1.94a235.39,235.39,0,0,1-407.7,0l-3.35,1.94h0l-7.11,4.1h0L34.3,384a256,256,0,0,0,443.4,0Z"/><path class="b" d="M0,256A256,256,0,0,0,34.3,384l7.36-4.25h0l3.46-2h0l7-4.06A235.38,235.38,0,0,1,20.62,256C20.62,126.87,126.87,20.62,256,20.62V0C115.56,0,0,115.56,0,256Z"/><path class="e" d="M512,256C512,115.56,396.43,0,256,0V20.62c129.13,0,235.38,106.25,235.38,235.38a235.38,235.38,0,0,1-31.53,117.69l7,4.06h0l3.46,2h0L477.7,384A256,256,0,0,0,512,256Z"/></svg>