<svg xmlns="http://www.w3.org/2000/svg" viewBox="0 0 512 512"><defs><style>.a,.f{fill:#6b6c6a;}.b{fill:#d19132;}.c{fill:#26522e;}.d{fill:#4d975a;}.e,.g{fill:#333;}.f,.g{fill-rule:evenodd;}</style></defs><title>Silometria-20</title><path class="a" d="M507.53,79.41H442.1L485.68,123a4.4,4.4,0,0,0,6.11.19A66,66,0,0,0,512,84.33a4.42,4.42,0,0,0-4.43-4.92Z"/><path class="b" d="M503.17,61.54A66.34,66.34,0,0,0,441.63,0,4.44,4.44,0,0,0,437,4.48v61.7h61.7a4.45,4.45,0,0,0,4.47-4.64Z"/><path class="c" d="M423.77,79.41V14a4.43,4.43,0,0,0-4.92-4.43A66.14,66.14,0,0,0,362,77.31c1.2,35.33,31.62,64.3,67,63.86A65.64,65.64,0,0,0,466.31,129a4.38,4.38,0,0,0,.43-6.64Z"/><path class="c" d="M508.48,493.25a3.53,3.53,0,0,1,3.52,3.52v11.71a3.53,3.53,0,0,1-3.52,3.52h-143a3.53,3.53,0,0,1-3.52-3.52V403a3.53,3.53,0,0,1,3.52-3.52h11.71a3.53,3.53,0,0,1,3.52,3.52v90.23Z"/><path class="d" d="M471.19,427.48,446.38,444l-25-33.31a3.53,3.53,0,0,0-5.83.29l-25.42,42.4v30.47h112.5l-26.34-55A3.52,3.52,0,0,0,471.19,427.48Z"/><path class="d" d="M494.59,231.06v1.78h-37.5v-37.5h1.77a7,7,0,0,1,5,2.06l28.7,28.69A7,7,0,0,1,494.59,231.06Z"/><path class="c" d="M454.74,242.21h39.85v96.1a7,7,0,0,1-7,7H389.12a7,7,0,0,1-7-7V202.37a7,7,0,0,1,7-7h58.59v39.84A7.05,7.05,0,0,0,454.74,242.21Zm19.13,32.15L465.62,266a3.51,3.51,0,0,0-5,0l-31.07,30.82-13.47-13.58a3.51,3.51,0,0,0-5,0l-8.32,8.25a3.51,3.51,0,0,0,0,5l24.2,24.4a3.53,3.53,0,0,0,5,0l41.88-41.55a3.51,3.51,0,0,0,0-5Z"/><path class="c" d="M344.94,74V56.28H313.37a14.21,14.21,0,0,0-14.19,14.19v180.7H269.63v18.56h29.55v180.7a14.2,14.2,0,0,0,14.19,14.18h31.57V446.89h-28V269.73h28V251.17h-28V74Z"/><rect class="e" y="238.14" width="252.57" height="94.96" rx="7.67"/><rect class="e" y="120.58" width="252.57" height="95.25" rx="7.67"/><path class="f" d="M4.6,52.5,123.36.64a7.71,7.71,0,0,1,6.14,0L248,52.49a7.68,7.68,0,0,1,4.59,7V90.6a7.67,7.67,0,0,1-7.67,7.67H7.67A7.67,7.67,0,0,1,0,90.6V59.52A7.66,7.66,0,0,1,4.6,52.5Z"/><path class="g" d="M4.49,384.63l80.26,36.53a7.67,7.67,0,0,1,4.49,7v2.59a7.67,7.67,0,0,0,7.67,7.67h58.75a7.67,7.67,0,0,0,7.67-7.67v-2.59a7.67,7.67,0,0,1,4.49-7l80.26-36.53a7.67,7.67,0,0,0,4.49-7V362.8a7.66,7.66,0,0,0-7.67-7.67H7.67A7.66,7.66,0,0,0,0,362.8v14.85A7.67,7.67,0,0,0,4.49,384.63Z"/><polygon class="g" points="225.8 485.4 225.63 418.27 252.57 406.01 252.57 512 0 512 0 406.01 26.6 418.11 26.77 485.4 225.8 485.4"/></svg>