<svg xmlns="http://www.w3.org/2000/svg" viewBox="0 0 512 512"><defs><style>.a,.c{fill:#333;}.b{fill:#6b6c6a;}.b,.c{fill-rule:evenodd;}.d{fill:#26522e;}.e{fill:#4d975a;}.f{fill:#d19132;}</style></defs><title>Silometria-18</title><rect class="a" x="145.38" y="273.28" width="230.45" height="86.65" rx="7"/><rect class="a" x="145.38" y="166.02" width="230.45" height="86.91" rx="7"/><path class="b" d="M149.58,103.9,257.93,56.58a7,7,0,0,1,5.61,0l108.1,47.31a7,7,0,0,1,4.19,6.41v28.35a7,7,0,0,1-7,7H152.38a7,7,0,0,1-7-7V110.31A7,7,0,0,1,149.58,103.9Z"/><path class="c" d="M149.48,406.94l73.23,33.33a7,7,0,0,1,4.1,6.37V449a7,7,0,0,0,7,7h53.6a7,7,0,0,0,7-7v-2.36a7,7,0,0,1,4.1-6.37l73.23-33.33a7,7,0,0,0,4.1-6.37V387a7,7,0,0,0-7-7H152.38a7,7,0,0,0-7,7v13.55A7,7,0,0,0,149.48,406.94Z"/><path class="d" d="M474.92,379.73h0l-7.12-4.1h0l-3.35-1.94a235.39,235.39,0,0,1-407.7,0l-3.34,1.94h0l-7.12,4.1h0L38.9,384a256,256,0,0,0,443.41,0Z"/><path class="e" d="M4.6,256A256,256,0,0,0,38.9,384l7.36-4.25h0l3.47-2h0l7-4.06A235.48,235.48,0,0,1,25.22,256c0-129.13,106.26-235.38,235.38-235.38V0C120.16,0,4.6,115.56,4.6,256Z"/><path class="f" d="M516.6,256C516.6,115.56,401,0,260.6,0V20.62C389.73,20.62,496,126.87,496,256a235.39,235.39,0,0,1-31.54,117.69l7,4.06h0l3.47,2h0l7.36,4.25A256,256,0,0,0,516.6,256Z"/></svg>