<svg xmlns="http://www.w3.org/2000/svg" viewBox="0 0 512 512"><defs><style>.a{fill:#333;}.b{fill:#4d975a;}.c{fill:#d19132;}.d{fill:#26522e;}</style></defs><title>Telemetria-44</title><path class="a" d="M419.38,350.81h-8.44V289.59a38.2,38.2,0,0,0-11.13-26.85L355.57,218.5a38.28,38.28,0,0,0-26.84-11.13h-19V186.28a29.55,29.55,0,0,0-29.53-29.53H119.85a29.55,29.55,0,0,0-29.54,29.53V346.59a29.55,29.55,0,0,0,29.54,29.53h4.21a50.63,50.63,0,1,0,101.25,0h67.5a50.63,50.63,0,1,0,101.25,0h25.32a8.45,8.45,0,0,0,8.43-8.43v-8.44A8.46,8.46,0,0,0,419.38,350.81ZM174.69,401.44A25.32,25.32,0,1,1,200,376.12,25.32,25.32,0,0,1,174.69,401.44Zm168.75,0a25.32,25.32,0,1,1,25.31-25.32A25.32,25.32,0,0,1,343.44,401.44ZM309.69,232.69h19a13,13,0,0,1,9,3.69l38.5,38.49h-66.5Z"/><path class="b" d="M284.38,350.81H218.3a50.23,50.23,0,0,0-87.22,0H119.85a4.23,4.23,0,0,1-4.22-4.22V186.28a4.23,4.23,0,0,1,4.22-4.22H280.16a4.23,4.23,0,0,1,4.22,4.22Z"/><path class="c" d="M385.63,348.23a50.28,50.28,0,0,0-75.94-9.6V300.19h75.94Z"/><path class="d" d="M409.8,162.34a6.69,6.69,0,0,1-4.76,2h-6.43a6.71,6.71,0,0,1-6.7-6.31,89.2,89.2,0,0,0-84.62-84.62,6.71,6.71,0,0,1-6.31-6.7V60.25a6.73,6.73,0,0,1,7.1-6.72A108.81,108.81,0,0,1,411.76,157.21a6.74,6.74,0,0,1-2,5.13Z"/><path class="d" d="M373.37,162.33a6.74,6.74,0,0,1-4.78,2h-6.45a6.74,6.74,0,0,1-6.69-6.16,53.24,53.24,0,0,0-48.32-48.31,6.74,6.74,0,0,1-6.15-6.69V96.7a6.72,6.72,0,0,1,2-4.78A6.62,6.62,0,0,1,308.19,90,72.89,72.89,0,0,1,375.3,157.1a6.62,6.62,0,0,1-1.93,5.23Z"/><path class="d" d="M336.69,162.33a6.74,6.74,0,0,1-4.77,2h-6.58a6.63,6.63,0,0,1-6.5-5A17.4,17.4,0,0,0,306,146.45a6.63,6.63,0,0,1-5-6.5v-6.58a6.72,6.72,0,0,1,7.93-6.62,36.93,36.93,0,0,1,29.63,29.63,6.68,6.68,0,0,1-1.85,6Z"/><path class="d" d="M470.31,379.73h0l-7.11-4.1h0l-3.35-1.94a235.39,235.39,0,0,1-407.7,0l-3.35,1.94h0l-7.11,4.1h0L34.3,384a256,256,0,0,0,443.4,0Z"/><path class="b" d="M0,256A256,256,0,0,0,34.3,384l7.36-4.25h0l3.46-2h0l7-4.06A235.38,235.38,0,0,1,20.62,256C20.62,126.87,126.87,20.62,256,20.62V0C115.56,0,0,115.56,0,256Z"/><path class="c" d="M512,256C512,115.56,396.43,0,256,0V20.62c129.13,0,235.38,106.25,235.38,235.38a235.38,235.38,0,0,1-31.53,117.69l7,4.06h0l3.46,2h0L477.7,384A256,256,0,0,0,512,256Z"/></svg>