<svg xmlns="http://www.w3.org/2000/svg" viewBox="0 0 512 512"><defs><style>.a{fill:#333;}.b{fill:#4d975a;}.c{fill:#d19132;}.d{fill:#26522e;}</style></defs><title>Telemetria-45</title><path class="a" d="M439.54,355.4H432.6V305.06A31.42,31.42,0,0,0,423.45,283l-36.38-36.39A31.54,31.54,0,0,0,365,237.45H349.33V220.1a24.3,24.3,0,0,0-24.28-24.29H246a64.8,64.8,0,0,1-3.69,20.82h82.78a3.48,3.48,0,0,1,3.47,3.47V355.4H274.18a41.31,41.31,0,0,0-71.73,0h-9.24a3.48,3.48,0,0,1-3.47-3.46V259.12a64.36,64.36,0,0,1-8.57.57,65,65,0,0,1-12-1.11l-.21.3v93.06a24.3,24.3,0,0,0,24.28,24.29h3.47a41.64,41.64,0,0,0,83.27,0h55.51a41.64,41.64,0,0,0,83.27,0h20.81a7,7,0,0,0,6.94-6.94v-7A7,7,0,0,0,439.54,355.4ZM238.31,397a20.82,20.82,0,1,1,20.82-20.81A20.81,20.81,0,0,1,238.31,397Zm111-138.78H365a10.66,10.66,0,0,1,7.37,3L404,293H349.33ZM377.09,397a20.82,20.82,0,1,1,20.81-20.81A20.81,20.81,0,0,1,377.09,397Zm34.7-43.76a41.36,41.36,0,0,0-62.46-7.89V313.77h62.46Z"/><path class="b" d="M328.52,220.1V355.4H274.18a41.31,41.31,0,0,0-71.73,0h-9.24a3.48,3.48,0,0,1-3.47-3.46V259.12a65.08,65.08,0,0,0,44.56-27,63.33,63.33,0,0,0,8-15.49h82.78A3.48,3.48,0,0,1,328.52,220.1Z"/><path class="c" d="M411.79,313.77v39.51a41.36,41.36,0,0,0-62.46-7.89V313.77Z"/><path class="a" d="M119.11,310.7a27.84,27.84,0,0,1-26-17.9,28,28,0,0,1-1.82-10.48,27.94,27.94,0,0,1,17.93-25.46,28,28,0,0,1,10-1.83h.52a27.83,27.83,0,0,1-.59,55.66Zm.06-38a10.21,10.21,0,0,0-5.91,18.55,10.11,10.11,0,0,0,5.85,1.85,10.16,10.16,0,0,0,10.08-11.95,10.16,10.16,0,0,0-10-8.45Zm11.42-21.37,13.79-19.59,14.41,10.14L145,261.45Zm50.57-9.71a46.8,46.8,0,0,1-46.77-46.29l-32.11-5.74a23.51,23.51,0,0,1-1.66,2.73,27.84,27.84,0,1,1-22.71-43.86h.51a27.63,27.63,0,0,1,26.85,23.81L137.62,178a44.39,44.39,0,0,1,5.26-10.24,46.86,46.86,0,0,1,76.82.27l35.18-15.59a24.76,24.76,0,0,1-.12-3.22,27.91,27.91,0,0,1,17.92-25.44,28.29,28.29,0,0,1,5.15-1.43,32.67,32.67,0,0,1,4.86-.4h.47a27.66,27.66,0,0,1,15.46,5.08,27.8,27.8,0,0,1-16,50.55h0a27.61,27.61,0,0,1-16-5.07,27,27,0,0,1-4.51-4l-35.44,15.71a46.61,46.61,0,0,1-45.49,57.37Zm.08-76.09a29.24,29.24,0,0,0-16.88,53.13A29,29,0,0,0,181.14,224,29.23,29.23,0,0,0,198,170.83,29,29,0,0,0,181.24,165.51Zm-103.35.57A10.2,10.2,0,0,0,72,184.64a10.08,10.08,0,0,0,5.85,1.84,10.24,10.24,0,0,0,8.38-4.32,10.2,10.2,0,0,0-8.33-16.08Zm204.74-26.47a10.2,10.2,0,0,0-5.91,18.55,10.11,10.11,0,0,0,5.85,1.85,10.24,10.24,0,0,0,8.38-4.32,10.2,10.2,0,0,0-8.32-16.08ZM173.69,112.09l17.61-.53.86,28.7-17.6.53Zm5.18-7.45A27.84,27.84,0,0,1,169,50.79a28.25,28.25,0,0,1,5.15-1.42,27.66,27.66,0,0,1,4.77-.4h.56a27.84,27.84,0,0,1-.59,55.67Zm.06-38a10.18,10.18,0,0,0-10.08,12,10.22,10.22,0,1,0,10.08-12Z"/><path class="d" d="M470.31,379.73h0l-7.11-4.1h0l-3.35-1.94a235.39,235.39,0,0,1-407.7,0l-3.35,1.94h0l-7.11,4.1h0L34.3,384a256,256,0,0,0,443.4,0Z"/><path class="b" d="M0,256A256,256,0,0,0,34.3,384l7.36-4.25h0l3.46-2h0l7-4.06A235.38,235.38,0,0,1,20.62,256C20.62,126.87,126.87,20.62,256,20.62V0C115.56,0,0,115.56,0,256Z"/><path class="c" d="M512,256C512,115.56,396.43,0,256,0V20.62c129.13,0,235.38,106.25,235.38,235.38a235.38,235.38,0,0,1-31.53,117.69l7,4.06h0l3.46,2h0L477.7,384A256,256,0,0,0,512,256Z"/></svg>