<svg xmlns="http://www.w3.org/2000/svg" viewBox="0 0 512 512"><defs><style>.a{fill:#333;}.b{fill:#d1d1d1;}.c{fill:#4d975a;}.d{fill:#d19132;}.e{fill:#26522e;}</style></defs><title>Telemetria-46</title><path class="a" d="M256,512a57,57,0,0,1-13-112.39V352.34a95.61,95.61,0,0,1-45.88-19l-33.43,33.43a56.86,56.86,0,1,1-18.43-18.43l33.43-33.43a95.73,95.73,0,0,1-19-45.88H112.39a57,57,0,1,1,0-26.06h47.26a95.73,95.73,0,0,1,19-45.88l-33.43-33.43a57.2,57.2,0,0,1-30,8.52,56.93,56.93,0,1,1,48.42-26.94l33.42,33.42a95.73,95.73,0,0,1,45.88-19V112.39a57,57,0,1,1,26.06,0v47.26a95.73,95.73,0,0,1,45.88,19l33.42-33.42a57,57,0,1,1,48.42,27,56.31,56.31,0,0,1-30-8.52l-33.41,33.41a95.61,95.61,0,0,1,19,45.88h47.27a57,57,0,1,1,0,26.06H352.34a95.61,95.61,0,0,1-19,45.88l33.41,33.41a56.94,56.94,0,1,1-18.43,18.44l-33.41-33.42a95.66,95.66,0,0,1-45.88,19v47.27A57,57,0,0,1,256,512Zm0-87.84a30.89,30.89,0,1,0,30.89,30.89A30.93,30.93,0,0,0,256,424.16Zm140.75-58.3a30.88,30.88,0,1,0,21.84,9.05A30.7,30.7,0,0,0,396.75,365.86Zm-281.5,0a30.83,30.83,0,1,0,21.84,9A30.68,30.68,0,0,0,115.25,365.88ZM256,184.85a71.14,71.14,0,1,0,50.31,20.84A70.69,70.69,0,0,0,256,184.85ZM57,225.11A30.89,30.89,0,1,0,87.84,256,30.93,30.93,0,0,0,57,225.11Zm58.3-140.73a30.83,30.83,0,1,0,21.84,9A30.68,30.68,0,0,0,115.25,84.38Z"/><circle class="b" cx="455.05" cy="256" r="30.89"/><path class="c" d="M396.75,84.36a30.86,30.86,0,1,0,21.84,9A30.7,30.7,0,0,0,396.75,84.36Z"/><circle class="d" cx="256" cy="56.95" r="30.89"/><circle class="e" cx="256" cy="256" r="30.89"/></svg>