<svg xmlns="http://www.w3.org/2000/svg" viewBox="0 0 512 512"><defs><style>.a{fill:#333;}.b{fill:#26522e;}.c{fill:#4d975a;}.d{fill:#d19132;}.e{fill:#d1d1d1;}</style></defs><title>Telemetria-43</title><path class="a" d="M256,470a47.61,47.61,0,0,1-10.9-94V336.55a80,80,0,0,1-38.35-15.89L178.8,348.61a47.58,47.58,0,1,1-15.41-15.4l28-28a80,80,0,0,1-15.89-38.35H135.93a47.61,47.61,0,1,1,0-21.8h39.52a80.13,80.13,0,0,1,15.88-38.36L163.39,178.8a47.89,47.89,0,0,1-25.07,7.12,47.6,47.6,0,1,1,40.48-22.53l27.95,28a80,80,0,0,1,38.35-15.89V135.93a47.62,47.62,0,1,1,21.79,0v39.52a80,80,0,0,1,38.36,15.89l27.95-28a47.6,47.6,0,1,1,40.48,22.55,47,47,0,0,1-25.08-7.13l-27.94,27.94a80,80,0,0,1,15.89,38.35h39.52a47.62,47.62,0,1,1,0,21.8H336.55a80,80,0,0,1-15.89,38.35l27.94,27.94a47.6,47.6,0,1,1-15.41,15.41l-27.94-27.94a80,80,0,0,1-38.36,15.89v39.52A47.61,47.61,0,0,1,256,470Zm0-73.43a25.82,25.82,0,1,0,25.82,25.82A25.85,25.85,0,0,0,256,396.6Zm117.68-48.75a25.83,25.83,0,1,0,18.26,7.57A25.63,25.63,0,0,0,373.68,347.85Zm-235.36,0a25.78,25.78,0,1,0,18.26,7.55A25.66,25.66,0,0,0,138.32,347.87ZM256,196.52a59.48,59.48,0,1,0,42.06,17.42A59.07,59.07,0,0,0,256,196.52ZM89.58,230.18A25.82,25.82,0,1,0,115.4,256,25.85,25.85,0,0,0,89.58,230.18Zm48.74-117.66a25.76,25.76,0,1,0,18.26,7.54A25.69,25.69,0,0,0,138.32,112.52Z"/><path class="b" d="M470.31,379.73h0l-7.11-4.1h0l-3.35-1.94a235.39,235.39,0,0,1-407.7,0l-3.35,1.94h0l-7.11,4.1h0L34.3,384a256,256,0,0,0,443.4,0Z"/><path class="c" d="M0,256A256,256,0,0,0,34.3,384l7.36-4.25h0l3.46-2h0l7-4.06A235.38,235.38,0,0,1,20.62,256C20.62,126.87,126.87,20.62,256,20.62V0C115.56,0,0,115.56,0,256Z"/><path class="d" d="M512,256C512,115.56,396.43,0,256,0V20.62c129.13,0,235.38,106.25,235.38,235.38a235.38,235.38,0,0,1-31.53,117.69l7,4.06h0l3.46,2h0L477.7,384A256,256,0,0,0,512,256Z"/><circle class="e" cx="422.42" cy="256" r="25.82"/><path class="c" d="M373.68,112.5a25.78,25.78,0,1,0,18.26,7.56A25.67,25.67,0,0,0,373.68,112.5Z"/><circle class="d" cx="256" cy="89.58" r="25.82"/><circle class="b" cx="256" cy="256" r="25.82"/></svg>